<svg width="76" height="64" viewBox="0 0 76 64" fill="none" xmlns="http://www.w3.org/2000/svg">
<circle cx="33.4572" cy="20.4572" r="20.4572" fill="url(#paint0_linear)"/>
<path fill-rule="evenodd" clip-rule="evenodd" d="M6.58499 26.4302C8.70859 26.4302 10.4301 24.7087 10.4301 22.5851C10.4301 20.4615 8.70859 18.74 6.58499 18.74C4.4614 18.74 2.73989 20.4615 2.73989 22.5851C2.73989 24.7087 4.4614 26.4302 6.58499 26.4302ZM6.58499 28.1702C9.40962 28.1702 11.7445 26.0734 12.118 23.3514H68.5325C70.2693 23.3514 71.6383 24.2482 72.6205 25.7094C73.6153 27.1893 74.1785 29.2127 74.2253 31.2777C74.2721 33.3442 73.7999 35.3521 72.8392 36.8141C71.9005 38.2427 70.4958 39.163 68.5374 39.1645L68.5325 39.1645H44.0004C43.5397 36.5442 41.2523 34.5532 38.4999 34.5532C35.7475 34.5532 33.4601 36.5442 32.9994 39.1645L8.26018 39.1645L8.25464 39.1645H8.07719V39.1666C5.55715 39.2247 3.69371 40.4818 2.4993 42.2995C1.29728 44.1287 0.775209 46.5091 0.827821 48.8308C0.880464 51.1542 1.5105 53.5191 2.72807 55.3304C3.95822 57.1604 5.82081 58.4577 8.26018 58.4577H64.8818C65.2553 61.1798 67.5902 63.2766 70.4148 63.2766C73.4994 63.2766 75.9999 60.7761 75.9999 57.6915C75.9999 54.6069 73.4994 52.1064 70.4148 52.1064C67.6624 52.1064 65.375 54.0974 64.9143 56.7177H8.26018C6.52336 56.7177 5.15438 55.8209 4.17214 54.3597C3.17732 52.8798 2.61416 50.8564 2.56738 48.7914C2.52055 46.7249 2.99281 44.7169 3.95345 43.255C4.89221 41.8264 6.29692 40.9061 8.25529 40.9045L8.26018 40.9045L32.9669 40.9045C33.3404 43.6266 35.6753 45.7234 38.4999 45.7234C41.3245 45.7234 43.6594 43.6266 44.0329 40.9045H68.5325L68.538 40.9045H68.7155V40.9024C71.2355 40.8444 73.099 39.5873 74.2934 37.7696C75.4954 35.9403 76.0175 33.56 75.9648 31.2382C75.9122 28.9149 75.2822 26.55 74.0646 24.7387C72.8344 22.9087 70.9719 21.6114 68.5325 21.6114H12.0855C11.6248 18.991 9.33741 17 6.58499 17C3.50042 17 0.999887 19.5005 0.999887 22.5851C0.999887 25.6697 3.50042 28.1702 6.58499 28.1702ZM74.2599 57.6915C74.2599 59.8151 72.5384 61.5366 70.4148 61.5366C68.2912 61.5366 66.5697 59.8151 66.5697 57.6915C66.5697 55.5679 68.2912 53.8464 70.4148 53.8464C72.5384 53.8464 74.2599 55.5679 74.2599 57.6915ZM42.345 40.1383C42.345 42.2619 40.6235 43.9834 38.4999 43.9834C36.3763 43.9834 34.6548 42.2619 34.6548 40.1383C34.6548 38.0147 36.3763 36.2932 38.4999 36.2932C40.6235 36.2932 42.345 38.0147 42.345 40.1383Z" fill="white"/>
<defs>
<linearGradient id="paint0_linear" x1="46.817" y1="40.9143" x2="29.2822" y2="2.08747" gradientUnits="userSpaceOnUse">
<stop stop-color="#9121C2"/>
<stop offset="1" stop-color="#FF5E5E"/>
</linearGradient>
</defs>
</svg>
