<svg width="74" height="67" viewBox="0 0 74 67" fill="none" xmlns="http://www.w3.org/2000/svg">
<circle cx="52.8344" cy="35.9801" r="20.455" fill="url(#paint0_linear)"/>
<path fill-rule="evenodd" clip-rule="evenodd" d="M37.374 8.99895C33.8401 -0.15697 20.8397 -0.169255 17.1503 8.97394C16.9659 9.43108 16.8699 9.92264 16.8699 10.414V21.1294H26.4901H37.6299V10.3728C37.6299 9.903 37.5431 9.43724 37.374 8.99895ZM15.1299 10.414V21.1294H6.22302C2.8576 21.1294 0.129395 23.8577 0.129395 27.2231V60.7769C0.129395 64.1423 2.8576 66.8705 6.22302 66.8705H47.7768C51.1422 66.8705 53.8704 64.1423 53.8704 60.7769V27.2231C53.8704 23.8577 51.1422 21.1294 47.7768 21.1294H39.3699V10.3728C39.3699 9.68875 39.2436 9.01058 38.9973 8.37242C34.8788 -2.29823 19.7998 -2.24211 15.5367 8.32284C15.2694 8.98542 15.1299 9.69792 15.1299 10.414ZM6.22302 22.8705C3.81915 22.8705 1.87043 24.8192 1.87043 27.2231V60.7769C1.87043 63.1807 3.81915 65.1295 6.22302 65.1295H47.7768C50.1807 65.1295 52.1294 63.1807 52.1294 60.7769V27.2231C52.1294 24.8192 50.1807 22.8705 47.7768 22.8705H26.4901H6.22302ZM28.9552 42.6093L28.161 43.2058L28.2707 44.1929L29.0563 51.26H24.9444L25.7293 44.1921L25.8389 43.2053L25.0452 42.6089C24.2496 42.0112 23.7405 41.0653 23.7405 40C23.7405 38.1995 25.2 36.74 27.0005 36.74C28.8009 36.74 30.2605 38.1995 30.2605 40C30.2605 41.0655 29.7511 42.0116 28.9552 42.6093ZM31.0005 53L30.807 51.26L30.0001 44.0007C31.2147 43.0885 32.0005 41.636 32.0005 40C32.0005 37.2386 29.7619 35 27.0005 35C24.239 35 22.0005 37.2386 22.0005 40C22.0005 41.6356 22.7858 43.0878 24 44L23.1937 51.26L23.0005 53H24.7512H29.2497H31.0005Z" fill="white"/>
<defs>
<linearGradient id="paint0_linear" x1="66.1928" y1="56.4352" x2="48.6599" y2="17.6124" gradientUnits="userSpaceOnUse">
<stop stop-color="#9121C2"/>
<stop offset="1" stop-color="#FF5E5E"/>
</linearGradient>
</defs>
</svg>
