<svg width="28" height="25" viewBox="0 0 28 25" fill="none" xmlns="http://www.w3.org/2000/svg">
<path opacity="0.4" d="M24.6122 0.0292049L10.3677 0C9.00343 0 7.89365 1.10979 7.89365 2.47407V3.77744L18.7683 3.75491C20.5944 3.75491 22.0789 5.23894 22.0789 7.06299V15.8837C22.0789 16.1482 22.0442 16.4044 21.9854 16.6514L23.439 18.2505C23.5195 18.3394 23.6326 18.387 23.7477 18.387C23.7982 18.387 23.8491 18.3782 23.8979 18.359C24.059 18.2973 24.1649 18.1421 24.1649 17.9698V13.7976H24.6113C25.9756 13.7976 27.0854 12.6878 27.0854 11.3236V2.50327C27.0854 1.13899 25.9756 0.0292049 24.6122 0.0292049Z" fill="url(#paint0_linear_15_648)"/>
<path d="M17.6321 5.72717L3.38886 5.75638C2.02458 5.75638 0.914795 6.86616 0.914795 8.23045V17.0507C0.914795 18.415 2.02458 19.5248 3.38845 19.5248H5.92134V23.6969C5.92134 23.8692 6.02732 24.024 6.18794 24.0862C6.23717 24.1054 6.28807 24.1141 6.33856 24.1141C6.45371 24.1141 6.56677 24.0666 6.64729 23.9777L10.6959 19.524L17.6325 19.4956C18.9968 19.4956 20.1066 18.3858 20.1066 17.0215V8.20082C20.1066 6.83654 18.9968 5.72717 17.6321 5.72717ZM5.92134 14.482C5.00097 14.482 4.25249 13.7335 4.25249 12.8131C4.25249 11.8927 5.00097 11.1443 5.92134 11.1443C6.84171 11.1443 7.59019 11.8927 7.59019 12.8131C7.59019 13.7335 6.84171 14.482 5.92134 14.482ZM10.5107 14.482C9.59031 14.482 8.84183 13.7335 8.84183 12.8131C8.84183 11.8927 9.59031 11.1443 10.5107 11.1443C11.4311 11.1443 12.1795 11.8927 12.1795 12.8131C12.1795 13.7335 11.4311 14.482 10.5107 14.482ZM15.1 14.482C14.1796 14.482 13.4312 13.7335 13.4312 12.8131C13.4312 11.8927 14.1796 11.1443 15.1 11.1443C16.0204 11.1443 16.7689 11.8927 16.7689 12.8131C16.7689 13.7335 16.0204 14.482 15.1 14.482Z" fill="url(#paint1_linear_15_648)"/>
<defs>
<linearGradient id="paint0_linear_15_648" x1="27.0854" y1="-5.18908e-07" x2="15.7517" y2="16.4994" gradientUnits="userSpaceOnUse">
<stop stop-color="#9121C2"/>
<stop offset="1" stop-color="#BB399C"/>
</linearGradient>
<linearGradient id="paint1_linear_15_648" x1="20.1066" y1="5.72717" x2="8.77288" y2="22.2266" gradientUnits="userSpaceOnUse">
<stop stop-color="#9121C2"/>
<stop offset="1" stop-color="#BB399C"/>
</linearGradient>
</defs>
</svg>
