<svg width="22" height="24" viewBox="0 0 22 24" fill="none" xmlns="http://www.w3.org/2000/svg">
<path opacity="0.4" d="M13.366 19.8581C13.366 22.0516 11.6562 23.8296 9.54706 23.8296C7.43794 23.8296 5.72827 22.0516 5.72827 19.8581C5.72827 17.6646 7.43794 15.8864 9.54706 15.8864C11.6562 15.8864 13.366 17.6646 13.366 19.8581Z" fill="url(#paint0_linear_15_657)"/>
<path d="M16.2377 11.8364C13.0012 11.3557 10.5019 8.46138 10.5019 4.96454C10.5019 3.97152 10.7061 3.0294 11.0679 2.17437C10.5791 2.05529 10.0713 1.98584 9.54705 1.98584C5.86199 1.98584 2.86413 5.10344 2.86413 8.93607V11.7042C2.86413 13.6692 2.03639 15.524 0.584224 16.8008C0.212922 17.1304 0 17.612 0 18.1203C0 19.0786 0.749422 19.858 1.67068 19.858H17.4234C18.3448 19.858 19.0943 19.0786 19.0943 18.1203C19.0943 17.612 18.8813 17.1304 18.5004 16.7919C17.0913 15.5518 16.274 13.7515 16.2377 11.8364Z" fill="url(#paint1_linear_15_657)"/>
<path opacity="0.4" d="M21.9585 4.96455C21.9585 7.70636 19.8212 9.92893 17.1849 9.92893C14.5485 9.92893 12.4113 7.70636 12.4113 4.96455C12.4113 2.22275 14.5485 0 17.1849 0C19.8212 0 21.9585 2.22275 21.9585 4.96455Z" fill="url(#paint2_linear_15_657)"/>
<defs>
<linearGradient id="paint0_linear_15_657" x1="13.366" y1="15.8864" x2="8.33854" y2="22.6287" gradientUnits="userSpaceOnUse">
<stop stop-color="#9121C2"/>
<stop offset="1" stop-color="#BB399C"/>
</linearGradient>
<linearGradient id="paint1_linear_15_657" x1="19.0943" y1="1.98584" x2="8.1722" y2="18.2609" gradientUnits="userSpaceOnUse">
<stop stop-color="#9121C2"/>
<stop offset="1" stop-color="#BB399C"/>
</linearGradient>
<linearGradient id="paint2_linear_15_657" x1="21.9585" y1="-2.80209e-07" x2="15.6743" y2="8.42787" gradientUnits="userSpaceOnUse">
<stop stop-color="#9121C2"/>
<stop offset="1" stop-color="#BB399C"/>
</linearGradient>
</defs>
</svg>
