<svg width="15" height="19" viewBox="0 0 15 19" fill="none" xmlns="http://www.w3.org/2000/svg">
<path d="M11.4146 9.60103L7.23881 13.7768L3.06302 9.60103C2.71412 9.28572 2.2574 9.11651 1.78728 9.12839C1.31716 9.14027 0.86958 9.33233 0.53705 9.66486C0.204519 9.99739 0.012465 10.445 0.000585709 10.9151C-0.0112935 11.3852 0.15791 11.8419 0.473222 12.1908L6.76368 18.4813C6.82589 18.544 6.8999 18.5938 6.98145 18.6278C7.063 18.6617 7.15047 18.6792 7.23881 18.6792C7.32715 18.6792 7.41462 18.6617 7.49617 18.6278C7.57771 18.5938 7.65173 18.544 7.71394 18.4813L14.0044 12.1908C14.3197 11.8419 14.4889 11.3852 14.477 10.9151C14.4652 10.445 14.2731 9.99739 13.9406 9.66486C13.608 9.33233 13.1605 9.14027 12.6903 9.12839C12.2202 9.11651 11.7635 9.28572 11.4146 9.60103Z" fill="url(#paint0_linear_15_651)"/>
<path opacity="0.4" d="M6.76368 9.35347C6.82589 9.41619 6.8999 9.46598 6.98145 9.49995C7.063 9.53393 7.15047 9.55142 7.23881 9.55142C7.32715 9.55142 7.41462 9.53393 7.49617 9.49995C7.57771 9.46598 7.65173 9.41619 7.71394 9.35347L14.0044 3.06302C14.3197 2.71412 14.4889 2.2574 14.477 1.78728C14.4652 1.31716 14.2731 0.86958 13.9406 0.53705C13.608 0.204519 13.1605 0.012465 12.6903 0.000585708C12.2202 -0.0112935 11.7635 0.15791 11.4146 0.473222L7.23881 4.62225L3.06302 0.473222C2.71412 0.15791 2.2574 -0.0112935 1.78728 0.000585708C1.31716 0.012465 0.86958 0.204519 0.53705 0.53705C0.204519 0.86958 0.012465 1.31716 0.000585709 1.78728C-0.0112935 2.2574 0.15791 2.71412 0.473222 3.06302L6.76368 9.35347Z" fill="url(#paint1_linear_15_651)"/>
<defs>
<linearGradient id="paint0_linear_15_651" x1="14.4776" y1="9.12781" x2="9.60147" y2="19.4364" gradientUnits="userSpaceOnUse">
<stop stop-color="#9121C2"/>
<stop offset="1" stop-color="#BB399C"/>
</linearGradient>
<linearGradient id="paint1_linear_15_651" x1="14.4776" y1="-2.69555e-07" x2="9.60147" y2="10.3086" gradientUnits="userSpaceOnUse">
<stop stop-color="#9121C2"/>
<stop offset="1" stop-color="#BB399C"/>
</linearGradient>
</defs>
</svg>
