<svg width="26" height="18" viewBox="0 0 26 18" fill="none" xmlns="http://www.w3.org/2000/svg">
<path opacity="0.4" d="M23.8333 0H2.16667C1.59221 0.0005736 1.04144 0.229031 0.635236 0.635236C0.229031 1.04144 0.0005736 1.59221 0 2.16667L0 3.25H26V2.16667C25.9994 1.59221 25.771 1.04144 25.3648 0.635236C24.9586 0.229031 24.4078 0.0005736 23.8333 0Z" fill="url(#paint0_linear_15_661)"/>
<path d="M0 15.1667C0.0005736 15.7411 0.229031 16.2919 0.635236 16.6981C1.04144 17.1043 1.59221 17.3328 2.16667 17.3333H23.8333C24.4078 17.3328 24.9586 17.1043 25.3648 16.6981C25.771 16.2919 25.9994 15.7411 26 15.1667V6.5H0V15.1667ZM18.4167 13H21.6667C21.954 13 22.2295 13.1141 22.4327 13.3173C22.6359 13.5205 22.75 13.796 22.75 14.0833C22.75 14.3707 22.6359 14.6462 22.4327 14.8494C22.2295 15.0525 21.954 15.1667 21.6667 15.1667H18.4167C18.1293 15.1667 17.8538 15.0525 17.6506 14.8494C17.4475 14.6462 17.3333 14.3707 17.3333 14.0833C17.3333 13.796 17.4475 13.5205 17.6506 13.3173C17.8538 13.1141 18.1293 13 18.4167 13Z" fill="url(#paint1_linear_15_661)"/>
<defs>
<linearGradient id="paint0_linear_15_661" x1="26" y1="-9.17199e-08" x2="25.6184" y2="4.25825" gradientUnits="userSpaceOnUse">
<stop stop-color="#9121C2"/>
<stop offset="1" stop-color="#BB399C"/>
</linearGradient>
<linearGradient id="paint1_linear_15_661" x1="26" y1="6.5" x2="22.0758" y2="19.6358" gradientUnits="userSpaceOnUse">
<stop stop-color="#9121C2"/>
<stop offset="1" stop-color="#BB399C"/>
</linearGradient>
</defs>
</svg>
