<svg width="20" height="22" viewBox="0 0 20 22" fill="none" xmlns="http://www.w3.org/2000/svg">
<path fill-rule="evenodd" clip-rule="evenodd" d="M9.64452 0C6.7764 0 4.45132 2.32508 4.45132 5.1932C4.45132 8.06133 6.7764 10.3864 9.64452 10.3864C12.5127 10.3864 14.8377 8.06133 14.8377 5.1932C14.8377 2.32508 12.5127 0 9.64452 0Z" fill="url(#paint0_linear_15_654)"/>
<path opacity="0.4" fill-rule="evenodd" clip-rule="evenodd" d="M18.4187 14.2089C12.9325 11.2935 6.35645 11.2935 0.870252 14.2089C0.334729 14.4935 0 15.0504 0 15.6569V19.2889C0 20.245 0.775023 21.02 1.73107 21.02H17.558C18.514 21.02 19.289 20.245 19.289 19.2889V15.6569C19.289 15.0504 18.9543 14.4935 18.4187 14.2089H18.4187Z" fill="url(#paint1_linear_15_654)"/>
<defs>
<linearGradient id="paint0_linear_15_654" x1="14.8377" y1="-2.9312e-07" x2="8.34165" y2="9.06032" gradientUnits="userSpaceOnUse">
<stop stop-color="#9121C2"/>
<stop offset="1" stop-color="#BB399C"/>
</linearGradient>
<linearGradient id="paint1_linear_15_654" x1="19.289" y1="12.0223" x2="15.7144" y2="22.7105" gradientUnits="userSpaceOnUse">
<stop stop-color="#9121C2"/>
<stop offset="1" stop-color="#BB399C"/>
</linearGradient>
</defs>
</svg>
