<svg width="22" height="22" viewBox="0 0 22 22" fill="none" xmlns="http://www.w3.org/2000/svg">
<path d="M16.0884 5.55676C14.7017 4.25841 12.9023 3.54671 10.9932 3.54838C7.55759 3.55142 4.5916 5.90709 3.77267 9.17479C3.71305 9.41266 3.50114 9.58065 3.25589 9.58065H0.714228C0.381676 9.58065 0.129028 9.27872 0.19054 8.95189C1.15022 3.8555 5.62476 0 11 0C13.9473 0 16.6238 1.15927 18.5986 3.04652L20.1828 1.46238C20.8534 0.79178 22 1.26672 22 2.21514V8.1613C22 8.74922 21.5234 9.22583 20.9354 9.22583H14.9893C14.0409 9.22583 13.5659 8.07924 14.2365 7.40859L16.0884 5.55676Z" fill="#FF5E5E"/>
<path opacity="0.4" d="M1.06454 12.7742H7.0107C7.95907 12.7742 8.43405 13.9208 7.76345 14.5914L5.91162 16.4433C7.29824 17.7417 9.09784 18.4534 11.0069 18.4517C14.4408 18.4485 17.408 16.0944 18.2273 12.8253C18.2869 12.5874 18.4988 12.4194 18.7441 12.4194H21.2858C21.6183 12.4194 21.871 12.7214 21.8095 13.0482C20.8498 18.1445 16.3752 22 11 22C8.0527 22 5.37618 20.8407 3.40133 18.9535L1.8172 20.5376C1.1466 21.2082 0 20.7333 0 19.7849V13.8387C0 13.2508 0.476608 12.7742 1.06454 12.7742Z" fill="#FF5E5E"/>
</svg>
