<svg width="22" height="22" viewBox="0 0 22 22" fill="none" xmlns="http://www.w3.org/2000/svg">
<path d="M1.51099 3.14286H16.6209C17.4519 3.14286 18.1319 2.43571 18.1319 1.57143C18.1319 0.707143 17.4519 0 16.6209 0H1.51099C0.679945 0 0 0.707143 0 1.57143C0 2.43571 0.679945 3.14286 1.51099 3.14286Z" fill="#FF5E5E"/>
<path d="M1.51099 11H16.6209C17.4519 11 18.1319 10.2929 18.1319 9.42861C18.1319 8.56432 17.4519 7.85718 16.6209 7.85718H1.51099C0.679945 7.85718 0 8.56432 0 9.42861C0 10.2929 0.679945 11 1.51099 11Z" fill="#FF5E5E"/>
<path opacity="0.4" d="M9.06593 15.7142H1.51099C0.679945 15.7142 0 16.4214 0 17.2857C0 18.1499 0.679945 18.8571 1.51099 18.8571H9.06593C9.89698 18.8571 10.5769 18.1499 10.5769 17.2857C10.5769 16.4214 9.89698 15.7142 9.06593 15.7142Z" fill="#FF5E5E"/>
<path opacity="0.4" d="M19.6428 15.7143H18.1318V14.1428C18.1318 13.2786 17.4519 12.5714 16.6209 12.5714C15.7898 12.5714 15.1099 13.2786 15.1099 14.1428V15.7143H13.5989C12.7678 15.7143 12.0879 16.4214 12.0879 17.2857C12.0879 18.15 12.7678 18.8571 13.5989 18.8571H15.1099V20.4286C15.1099 21.2928 15.7898 22 16.6209 22C17.4519 22 18.1318 21.2928 18.1318 20.4286V18.8571H19.6428C20.4739 18.8571 21.1538 18.15 21.1538 17.2857C21.1538 16.4214 20.4739 15.7143 19.6428 15.7143Z" fill="#FF5E5E"/>
</svg>
