<svg width="27" height="23" viewBox="0 0 27 23" fill="none" xmlns="http://www.w3.org/2000/svg">
<path d="M21.8858 8.18252L17.5646 1.15127C17.3483 0.801212 17.0413 0.511102 16.6735 0.309306C16.3057 0.10751 15.8898 0.000934826 15.4663 0H6.75812C6.33467 0.000934826 5.91871 0.10751 5.55092 0.309306C5.18313 0.511102 4.87609 0.801212 4.65982 1.15127L0.338265 8.18291C0.116737 8.54415 -6.85581e-05 8.95588 3.01888e-08 9.37524C6.86184e-05 9.79461 0.117009 10.2063 0.338655 10.5675L4.65982 17.5987C4.87609 17.9488 5.18313 18.2389 5.55092 18.4407C5.91871 18.6425 6.33467 18.7491 6.75812 18.75H15.4663C15.8898 18.7491 16.3057 18.6425 16.6735 18.4407C17.0413 18.2389 17.3483 17.9488 17.5646 17.5987L21.8862 10.5671C22.1077 10.2059 22.2245 9.79412 22.2244 9.37476C22.2244 8.95539 22.1074 8.5437 21.8858 8.18252ZM11.1122 13.2812C10.3087 13.2812 9.52329 13.0522 8.85521 12.6229C8.18714 12.1937 7.66644 11.5836 7.35896 10.8699C7.05148 10.1561 6.97102 9.37067 7.12778 8.61293C7.28453 7.85519 7.67144 7.15916 8.2396 6.61286C8.80775 6.06657 9.53162 5.69453 10.3197 5.54381C11.1077 5.39308 11.9245 5.47044 12.6669 5.7661C13.4092 6.06175 14.0437 6.56242 14.4901 7.2048C14.9365 7.84718 15.1747 8.60242 15.1747 9.375C15.1735 10.4106 14.745 11.4035 13.9834 12.1358C13.2218 12.8681 12.1893 13.28 11.1122 13.2812Z" fill="#FF5E5E"/>
<path opacity="0.4" d="M8 20.2728L8.5216 21.1215C8.73787 21.4715 9.04491 21.7617 9.4127 21.9634C9.78049 22.1652 10.1964 22.2718 10.6199 22.2728H19.3281C19.7515 22.2718 20.1675 22.1652 20.5353 21.9634C20.9031 21.7617 21.2101 21.4715 21.4264 21.1215L25.7479 14.0898C25.9695 13.7286 26.0863 13.3169 26.0862 12.8975C26.0861 12.4781 25.9692 12.0665 25.7476 11.7053L24.085 9C24.0668 9.75653 23.8474 10.492 23.4529 11.1354L23.4519 11.1371L19.1279 18.1727C18.7263 18.8227 18.162 19.3522 17.4973 19.7169C16.8331 20.0813 16.0875 20.2711 15.3325 20.2727L15.3281 20.2728L8 20.2728Z" fill="#FF5E5E"/>
</svg>
