<svg width="26" height="25" viewBox="0 0 26 25" fill="none" xmlns="http://www.w3.org/2000/svg">
<path d="M5.44824 0.177778L0.0823739 7.5183C-0.0142488 7.64837 -0.0268487 7.81956 0.0497585 7.96143C0.126366 8.10329 0.279239 8.19187 0.445477 8.19071H3.13513V9.48381C3.13439 12.6945 4.57571 15.7491 7.08892 17.8631L8.19168 18.7898C9.53642 19.9225 10.3076 21.558 10.3075 23.2769V24.57C10.3075 24.8081 10.5082 25.0011 10.7558 25.0011H15.2386C15.4862 25.0011 15.6869 24.8081 15.6869 24.57V23.2769C15.6785 20.0681 14.2388 17.0169 11.7331 14.8976L10.6303 13.9709C9.28557 12.8382 8.51439 11.2028 8.51444 9.48381V8.19071H11.2041C11.3703 8.19187 11.5232 8.10329 11.5998 7.96143C11.6764 7.81956 11.6638 7.64837 11.5672 7.5183L6.17444 0.177778C6.08995 0.0660827 5.95498 0 5.81134 0C5.6677 0 5.53273 0.0660827 5.44824 0.177778Z" fill="#FF5E5E"/>
<path opacity="0.4" d="M14.3418 7.76399C14.3423 7.87777 14.3898 7.9867 14.4739 8.06675C14.558 8.1468 14.6718 8.1914 14.7901 8.19071H17.4798V9.48381C17.4798 11.2028 16.7086 12.8382 15.3639 13.9709L14.2611 14.8976C14.0325 15.0916 13.8129 15.2942 13.6022 15.5011C13.6291 15.5355 13.6604 15.5657 13.6873 15.6002C14.9713 17.0775 15.8649 18.8313 16.2918 20.7123C16.6523 19.9783 17.1667 19.3238 17.8025 18.7898L18.9053 17.8631C21.4185 15.7491 22.8598 12.6945 22.8591 9.48381V8.19071H25.5487C25.715 8.19187 25.8678 8.10329 25.9445 7.96143C26.0211 7.81956 26.0085 7.64837 25.9118 7.5183L20.5191 0.177778C20.4346 0.0660827 20.2996 0 20.156 0C20.0123 0 19.8774 0.0660827 19.7929 0.177778L14.427 7.5183C14.3724 7.58953 14.3426 7.67551 14.3418 7.76399Z" fill="#FF5E5E"/>
</svg>
