<svg width="22" height="22" viewBox="0 0 22 22" fill="none" xmlns="http://www.w3.org/2000/svg">
<path d="M9.16658 0H0.916577C0.412769 0 0 0.412768 0 0.916577V11C0 11.5041 0.412769 11.9166 0.916577 11.9166H9.16658C9.67065 11.9166 10.0834 11.5041 10.0834 11V0.916577C10.0834 0.412768 9.67065 0 9.16658 0Z" fill="#FF5E5E"/>
<path d="M21.0834 10.0834H12.8334C12.3293 10.0834 11.9166 10.4959 11.9166 11V21.0834C11.9166 21.5872 12.3293 22 12.8334 22H21.0834C21.5872 22 22 21.5872 22 21.0834V11C22 10.4959 21.5872 10.0834 21.0834 10.0834Z" fill="#FF5E5E"/>
<g opacity="0.4">
<path d="M9.16658 13.75H0.916577C0.412769 13.75 0 14.1628 0 14.6666V21.0834C0 21.5872 0.412769 22 0.916577 22H9.16658C9.67065 22 10.0834 21.5872 10.0834 21.0834V14.6666C10.0834 14.1628 9.67065 13.75 9.16658 13.75Z" fill="#FF5E5E"/>
</g>
<g opacity="0.4">
<path d="M21.0834 0H12.8334C12.3293 0 11.9166 0.412769 11.9166 0.916577V7.33342C11.9166 7.83723 12.3293 8.25 12.8334 8.25H21.0834C21.5872 8.25 22 7.83723 22 7.33342V0.916577C22 0.412769 21.5872 0 21.0834 0Z" fill="#FF5E5E"/>
</g>
</svg>
