<svg width="69" height="61" viewBox="0 0 69 61" fill="none" xmlns="http://www.w3.org/2000/svg">
<circle cx="25" cy="36" r="25" fill="#FCEDE3"/>
<path d="M65.8316 25.0109H64.8696V4.80979C64.8665 2.15479 62.7149 0.00312636 60.0598 0H19.6576C17.0026 0.00312636 14.851 2.15479 14.8478 4.80979V19.2392H13.8859C12.292 19.2392 11 20.5312 11 22.125V47.1359C11 48.7298 12.292 50.0218 13.8859 50.0218H50.4403C50.9715 50.0218 51.4022 49.5911 51.4022 49.0598C51.3991 46.4048 49.2474 44.2532 46.5924 44.2501H43.7066V38.4783H55.2501V47.1359C55.2501 48.7298 56.5421 50.0218 58.1359 50.0218H65.8316C67.4254 50.0218 68.7175 48.7298 68.7175 47.1359V27.8968C68.7175 26.3029 67.4254 25.0109 65.8316 25.0109ZM32.1631 47.1359C32.1631 47.6672 31.7324 48.0979 31.2011 48.0979H13.8859C13.3546 48.0979 12.9239 47.6672 12.9239 47.1359V46.174H32.1631V47.1359ZM32.1631 44.2501H12.9239V22.125C12.9239 21.5938 13.3546 21.1631 13.8859 21.1631H31.2011C31.7324 21.1631 32.1631 21.5938 32.1631 22.125V44.2501ZM46.5924 46.174C47.8151 46.1754 48.9046 46.9457 49.3138 48.0979H33.91C34.024 47.7898 34.0837 47.4644 34.087 47.1359V46.174H46.5924ZM34.087 44.2501V38.4783H36.0109V44.2501H34.087ZM37.9348 44.2501V38.4783H41.7826V44.2501H37.9348ZM55.2501 36.5544H34.087V30.7826H55.2501V36.5544ZM55.2501 27.8968V28.8587H34.087V22.125C34.0837 21.6686 33.9708 21.2196 33.758 20.8158C33.7445 20.8302 33.7724 20.8023 33.758 20.8158C33.4529 20.5317 33.3821 20.369 33 20C32.6272 19.64 32.5 19.5 32.392 19.5037L32.5 19.5C32.4769 19.524 32.4122 19.4787 32.392 19.5037C32.0188 19.3305 31.6125 19.2404 31.2011 19.2392H16.7717V4.80979C16.7717 3.21595 18.0638 1.92392 19.6576 1.92392H60.0598C61.6537 1.92392 62.9457 3.21595 62.9457 4.80979V25.0109H58.1359C56.5421 25.0109 55.2501 26.3029 55.2501 27.8968ZM66.7936 47.1359C66.7936 47.6672 66.3628 48.0979 65.8316 48.0979H58.1359C57.6047 48.0979 57.174 47.6672 57.174 47.1359V46.174H66.7936V47.1359ZM66.7936 44.2501H57.174V27.8968C57.174 27.3655 57.6047 26.9348 58.1359 26.9348H65.8316C66.3628 26.9348 66.7936 27.3655 66.7936 27.8968V44.2501Z" fill="black"/>
</svg>
