<svg width="61" height="63" viewBox="0 0 61 63" fill="none" xmlns="http://www.w3.org/2000/svg">
<circle cx="25" cy="38" r="25" fill="#FCEDE3"/>
<path d="M35 0.95C21.1877 0.95 9.95 12.1877 9.95 26C9.95 39.8123 21.1877 51.05 35 51.05C48.8123 51.05 60.05 39.8123 60.05 26C60.05 12.1877 48.8124 0.95 35 0.95ZM35 48.7761C22.4406 48.7761 12.2239 38.5594 12.2239 26C12.2239 13.4406 22.4406 3.22388 35 3.22388C47.5594 3.22388 57.7761 13.4406 57.7761 26C57.7761 38.5594 47.5594 48.7761 35 48.7761Z" fill="black" stroke="black" stroke-width="0.1"/>
<path d="M34.195 26.8048L34.1952 26.805L43.9778 36.5876L43.978 36.5878C44.2007 36.8082 44.4916 36.9197 44.7827 36.9197C45.0738 36.9197 45.3647 36.8083 45.5874 36.5878L45.5876 36.5876C46.0311 36.1441 46.0311 35.4234 45.5876 34.9799L36.1371 25.5293V8.60872C36.1371 7.98111 35.6277 7.47173 35.0001 7.47173C34.3725 7.47173 33.8631 7.98111 33.8631 8.60872V26.0001C33.8631 26.3025 33.9836 26.5913 34.195 26.8048Z" fill="black" stroke="black" stroke-width="0.1"/>
</svg>
