<svg width="71" height="66" viewBox="0 0 71 66" fill="none" xmlns="http://www.w3.org/2000/svg">
<circle cx="25" cy="40.0344" r="25" fill="#FCEDE3"/>
<path d="M44 24.75C38.582 24.75 32.75 23.3415 32.75 20.25C32.75 17.1585 38.582 15.75 44 15.75C49.418 15.75 55.2501 17.1585 55.2501 20.25C55.2501 23.3415 49.418 24.75 44 24.75ZM44 18C38.0938 18 35 19.6718 35 20.25C35 20.8283 38.0938 22.5 44 22.5C49.9063 22.5 53.0001 20.8283 53.0001 20.25C53.0001 19.6718 49.9063 18 44 18Z" fill="#2C1338"/>
<path d="M44 38.25C38.582 38.25 32.75 36.8415 32.75 33.75V20.25C32.75 19.629 33.254 19.125 33.875 19.125C34.496 19.125 35 19.629 35 20.25V33.75C35 34.3283 38.0938 36 44 36C49.9063 36 53.0001 34.3283 53.0001 33.75V20.25C53.0001 19.629 53.5041 19.125 54.1251 19.125C54.7461 19.125 55.2501 19.629 55.2501 20.25V33.75C55.2501 36.8415 49.418 38.25 44 38.25Z" fill="#2C1338"/>
<path d="M44 31.5001C38.582 31.5001 32.75 30.0916 32.75 27.0001C32.75 26.3791 33.254 25.8751 33.875 25.8751C34.496 25.8751 35 26.3791 35 27.0001C35 27.5784 38.0938 29.2501 44 29.2501C49.9063 29.2501 53.0001 27.5784 53.0001 27.0001C53.0001 26.3791 53.5041 25.8751 54.1251 25.8751C54.7461 25.8751 55.2501 26.3791 55.2501 27.0001C55.2501 30.0916 49.418 31.5001 44 31.5001Z" fill="#2C1338"/>
<path d="M18.7325 33.7503C18.2173 33.7503 17.7538 33.3948 17.6368 32.8728C17.2138 31.0008 17 29.0253 17 27.0003C17 12.112 29.1118 0.000244141 44.0001 0.000244141C52.5501 0.000244141 60.6704 4.11775 65.7194 11.014C66.0861 11.5158 65.9781 12.22 65.4764 12.5868C64.9746 12.9558 64.2704 12.8433 63.9036 12.3438C59.2776 6.02351 51.8346 2.25025 44.0001 2.25025C30.3538 2.25025 19.25 13.354 19.25 27.0003C19.25 28.8611 19.4458 30.6701 19.8305 32.3778C19.9678 32.9853 19.5875 33.5861 18.98 33.7233C18.8968 33.7413 18.8135 33.7503 18.7325 33.7503Z" fill="#2C1338"/>
<path d="M43.9998 54.0003C35.3845 54.0003 27.2282 49.831 22.1859 42.847C21.8214 42.343 21.9362 41.6388 22.438 41.2765C22.9442 40.9098 23.644 41.0245 24.0085 41.5285C28.6322 47.9298 36.1045 51.7503 43.9998 51.7503C57.646 51.7503 68.7498 40.6465 68.7498 27.0002C68.7498 25.1147 68.5496 23.308 68.1513 21.6362C68.0073 21.031 68.3808 20.4235 68.9861 20.2817C69.5958 20.1355 70.1988 20.5112 70.3406 21.1165C70.7771 22.9592 70.9998 24.9392 70.9998 27.0002C70.9998 41.8885 58.888 54.0003 43.9998 54.0003Z" fill="#2C1338"/>
<path d="M22.7375 54C22.121 54 21.6193 53.5028 21.6125 52.8863L21.5 41.6363C21.4978 41.337 21.6148 41.0468 21.8263 40.8353C22.0378 40.6193 22.3258 40.5 22.625 40.5H33.8751C34.4961 40.5 35.0001 41.004 35.0001 41.625C35.0001 42.246 34.4961 42.75 33.8751 42.75H23.7613L23.8625 52.8638C23.8693 53.4848 23.372 53.9933 22.7488 54C22.7465 54 22.742 54 22.7375 54Z" fill="#2C1338"/>
<path d="M65.375 13.5H54.125C53.504 13.5 53 12.996 53 12.375C53 11.754 53.504 11.25 54.125 11.25H64.25V1.125C64.25 0.504001 64.754 0 65.375 0C65.996 0 66.5 0.504001 66.5 1.125V12.375C66.5 12.996 65.996 13.5 65.375 13.5Z" fill="#2C1338"/>
</svg>
