<svg width="75" height="61" viewBox="0 0 75 61" fill="none" xmlns="http://www.w3.org/2000/svg">
<circle cx="25" cy="29" r="25" fill="#FCEDE3"/>
<path d="M73.8508 1.40032C73.812 1.16882 73.7019 0.955196 73.536 0.789159C73.3701 0.623121 73.1565 0.512929 72.9251 0.473915C62.6489 -1.26341 52.2165 1.81062 43.5641 9.12441C42.5396 9.9734 40.9758 11.472 40.1752 12.2733C38.2975 14.157 36.5899 16.2029 35.0723 18.3871L27.7714 18.9419C26.4432 19.0423 25.1669 19.5002 24.0778 20.2669C22.9886 21.0336 22.1271 22.0807 21.5846 23.2972L18.7222 29.7078C18.652 29.8652 18.6187 30.0366 18.6249 30.2088C18.6312 30.3811 18.6768 30.5496 18.7582 30.7015C18.8397 30.8534 18.9549 30.9846 19.0949 31.0851C19.2349 31.1856 19.3961 31.2527 19.566 31.2813L28.032 32.7135L26.6947 34.4185C26.0659 35.2227 25.7528 36.229 25.8145 37.2479C25.8762 38.2668 26.3083 39.2281 27.0295 39.9505L34.3291 47.2501C35.0517 47.9711 36.0129 48.403 37.0318 48.4645C38.0507 48.5261 39.057 48.213 39.8611 47.5843L41.5648 46.2482L42.9964 54.7148C43.025 54.8847 43.0922 55.0457 43.1927 55.1856C43.2932 55.3254 43.4244 55.4404 43.5762 55.5218C43.728 55.6031 43.8964 55.6486 44.0686 55.6548C44.2407 55.6609 44.4119 55.6276 44.5692 55.5574L50.9837 52.7027C52.2027 52.1611 53.2521 51.2992 54.0203 50.2086C54.7884 49.1181 55.2466 47.8397 55.346 46.5095L55.8937 39.2647C58.0991 37.7519 60.1606 36.0394 62.0521 34.1489C62.8482 33.3534 64.3417 31.7967 65.1971 30.7652C72.5006 22.1218 75.5746 11.6927 73.8508 1.40032ZM23.6471 24.2178C24.0236 23.3731 24.6217 22.6461 25.3779 22.1138C26.1341 21.5815 27.0202 21.2637 27.9424 21.1941L33.5343 20.7689C32.6326 22.2764 31.8268 23.8392 31.1215 25.448C30.3762 27.1276 29.7573 28.8605 29.27 30.6323L21.3782 29.2975L23.6471 24.2178ZM38.4682 45.8076C38.0984 46.0962 37.6358 46.2398 37.1675 46.2114C36.6993 46.183 36.2575 45.9846 35.9252 45.6534L28.6256 38.3538C28.2941 38.0217 28.0956 37.5799 28.0673 37.1117C28.039 36.6434 28.183 36.1809 28.472 35.8114L30.1926 33.6179L40.6617 44.087L38.4682 45.8076ZM53.0926 46.3398C53.0231 47.2637 52.7044 48.1516 52.1705 48.9088C51.6366 49.666 50.9074 50.2644 50.0605 50.6402L44.984 52.9027L43.6551 45.0567C45.4331 44.57 47.1713 43.9485 48.8548 43.1974C50.4567 42.4993 52.0121 41.699 53.5113 40.8014L53.0926 46.3398ZM63.4675 29.3085L63.4604 29.3175C62.7398 30.1865 61.4025 31.6019 60.4541 32.5496C58.5352 34.4724 56.4311 36.2012 54.1726 37.7106C52.2071 39.042 50.1221 40.1877 47.9445 41.133C46.2635 41.886 44.5241 42.5014 42.7435 42.9729L37.2922 37.5203L31.3448 31.5729C31.8195 29.789 32.4354 28.0458 33.1866 26.3596C34.1398 24.1759 35.2883 22.0828 36.618 20.1058C38.1357 17.869 39.8613 15.7807 41.7719 13.8687C42.7248 12.9158 44.1408 11.5778 45.0131 10.8546C52.9307 4.16146 62.396 1.24226 71.7477 2.5738C73.0722 11.9436 70.1491 21.4083 63.4682 29.3111L63.4675 29.3085Z" fill="#2C1338"/>
<path d="M50.5494 12.9496C48.8875 14.5725 47.6975 16.6163 47.1064 18.8628C46.4457 21.5678 47.0031 24.056 48.6359 25.6889C49.2524 26.2834 49.9812 26.7489 50.7798 27.0582C51.5784 27.3675 52.4306 27.5143 53.2867 27.4901C54.0185 27.4865 54.7473 27.3955 55.4575 27.2191C57.7052 26.628 59.7503 25.4378 61.3746 23.7754C65.4144 19.7363 66.2724 14.0218 63.2881 11.0368C60.3037 8.05175 54.5892 8.90912 50.5494 12.9496ZM59.7747 22.1781C58.4458 23.5485 56.7697 24.5322 54.9253 25.0244C53.0035 25.4927 51.2939 25.1534 50.232 24.0922C49.1701 23.0309 48.8308 21.3181 49.3011 19.395C49.7931 17.551 50.7764 15.8752 52.1461 14.5462C54.1098 12.5825 56.58 11.5103 58.6541 11.5103C59.2097 11.4863 59.7644 11.5732 60.286 11.7659C60.8076 11.9586 61.2856 12.2533 61.692 12.6328C63.7603 14.7011 62.8836 19.0731 59.7779 22.1781H59.7747Z" fill="#2C1338"/>
<path d="M22.9496 49.7944L14.3307 58.4126C14.2258 58.5175 14.1427 58.6419 14.0859 58.7789C14.0292 58.9159 14 59.0627 14 59.211C14 59.3592 14.0292 59.506 14.0859 59.643C14.1427 59.78 14.2258 59.9045 14.3307 60.0093C14.4355 60.1141 14.56 60.1973 14.697 60.254C14.8339 60.3108 14.9808 60.34 15.129 60.34C15.2773 60.34 15.4241 60.3108 15.5611 60.254C15.6981 60.1973 15.8225 60.1141 15.9274 60.0093L24.5463 51.3904C24.7519 51.1774 24.8656 50.8922 24.863 50.5962C24.8603 50.3002 24.7416 50.0171 24.5322 49.8078C24.3228 49.5985 24.0396 49.4798 23.7436 49.4773C23.4476 49.4748 23.1625 49.5887 22.9496 49.7944Z" fill="#2C1338"/>
<path d="M15.452 48.4115C15.6003 48.4117 15.7472 48.3826 15.8842 48.3259C16.0213 48.2692 16.1458 48.1861 16.2507 48.0812L20.5511 43.7782C20.7568 43.5653 20.8706 43.2801 20.8681 42.9841C20.8656 42.6881 20.7469 42.4049 20.5377 42.1956C20.3284 41.9862 20.0452 41.8674 19.7492 41.8648C19.4532 41.8622 19.168 41.9759 18.9551 42.1815L14.654 46.4877C14.4962 46.6456 14.3888 46.8467 14.3453 47.0656C14.3018 47.2846 14.3241 47.5115 14.4095 47.7177C14.4949 47.9239 14.6395 48.1002 14.8251 48.2243C15.0106 48.3483 15.2288 48.4146 15.452 48.4147V48.4115Z" fill="#2C1338"/>
<path d="M30.6213 53.7277L26.2345 58.1145C26.1266 58.2187 26.0407 58.3433 25.9815 58.4811C25.9224 58.6188 25.8913 58.767 25.89 58.9169C25.8887 59.0668 25.9173 59.2154 25.9741 59.3542C26.0309 59.4929 26.1148 59.6189 26.2208 59.7249C26.3268 59.8309 26.4529 59.9147 26.5916 59.9714C26.7304 60.0282 26.8791 60.0567 27.029 60.0554C27.1789 60.054 27.327 60.0229 27.4647 59.9637C27.6025 59.9045 27.727 59.8184 27.8311 59.7106L32.218 55.3237C32.4237 55.1108 32.5375 54.8257 32.535 54.5297C32.5325 54.2337 32.4138 53.9505 32.2046 53.7411C31.9953 53.5317 31.7122 53.413 31.4161 53.4103C31.1201 53.4077 30.8349 53.5214 30.622 53.727L30.6213 53.7277Z" fill="#2C1338"/>
</svg>
