<svg width="71" height="56" viewBox="0 0 71 56" fill="none" xmlns="http://www.w3.org/2000/svg">
<circle cx="25" cy="31" r="25" fill="#FCEDE3"/>
<path d="M42.3667 0C37.6061 0 33.7334 3.87262 33.7334 8.63334C33.7334 13.3941 37.606 17.2667 42.3667 17.2667C47.1275 17.2667 51.0001 13.394 51.0001 8.63334C51.0001 3.87273 47.1275 0 42.3667 0ZM42.3667 14.8C38.9677 14.8 36.2001 12.0324 36.2001 8.63334C36.2001 5.23433 38.9677 2.46674 42.3667 2.46674C45.7658 2.46674 48.5333 5.23433 48.5333 8.63334C48.5333 12.0324 45.7659 14.8 42.3667 14.8Z" fill="#2C1338"/>
<path d="M59.6334 9.8667C56.2344 9.8667 53.4668 12.6343 53.4668 16.0333C53.4668 19.4323 56.2344 22.1999 59.6334 22.1999C63.0324 22.1999 65.8 19.4323 65.8 16.0333C65.8 12.6343 63.0324 9.8667 59.6334 9.8667ZM59.6334 19.7333C57.5934 19.7333 55.9334 18.0733 55.9334 16.0333C55.9334 13.9933 57.5934 12.3333 59.6334 12.3333C61.6734 12.3333 63.3334 13.9933 63.3334 16.0333C63.3334 18.0733 61.6733 19.7333 59.6334 19.7333Z" fill="#2C1338"/>
<path d="M25.275 9.8667C21.8734 9.8667 19.1084 12.6343 19.1084 16.0333C19.1084 19.4323 21.876 22.1999 25.275 22.1999C28.674 22.1999 31.4416 19.4323 31.4416 16.0333C31.4416 12.6343 28.6765 9.8667 25.275 9.8667ZM25.275 19.7333C23.235 19.7333 21.575 18.0733 21.575 16.0333C21.575 13.9933 23.235 12.3333 25.275 12.3333C27.315 12.3333 28.975 13.9933 28.975 16.0333C28.975 18.0733 27.3149 19.7333 25.275 19.7333Z" fill="#2C1338"/>
<path d="M42.3663 19.7333C33.5258 19.7333 26.333 26.9261 26.333 35.7666C26.333 36.4474 26.8856 37 27.5664 37C28.2472 37 28.7997 36.4474 28.7997 35.7666C28.7997 28.2852 34.885 22.2 42.3663 22.2C49.8477 22.2 55.9329 28.2852 55.9329 35.7666C55.9329 36.4474 56.4855 37 57.1663 37C57.8471 37 58.3996 36.4474 58.3996 35.7666C58.3996 26.9261 51.2069 19.7333 42.3663 19.7333Z" fill="#2C1338"/>
<path d="M59.633 24.6666C57.603 24.6666 55.6148 25.2216 53.8832 26.27C53.3036 26.6252 53.116 27.3824 53.4688 27.9646C53.8264 28.5468 54.5812 28.7318 55.1634 28.379C56.5077 27.5624 58.0518 27.1332 59.633 27.1332C64.3936 27.1332 68.2663 31.0059 68.2663 35.7666C68.2663 36.4474 68.8189 37 69.4997 37C70.1805 37 70.7331 36.4474 70.7331 35.7666C70.733 29.6468 65.7528 24.6666 59.633 24.6666Z" fill="#2C1338"/>
<path d="M30.8473 26.2674C29.1182 25.2216 27.1301 24.6666 25.1 24.6666C18.9802 24.6666 14 29.6468 14 35.7666C14 36.4474 14.5526 37 15.2334 37C15.9142 37 16.4667 36.4474 16.4667 35.7666C16.4666 31.0059 20.3394 27.1332 25.1 27.1332C26.6811 27.1332 28.2252 27.5624 29.5671 28.3764C30.1467 28.7292 30.9065 28.5442 31.2617 27.962C31.6169 27.3799 31.4294 26.6226 30.8473 26.2674Z" fill="#2C1338"/>
</svg>
