<svg width="68" height="57" viewBox="0 0 68 57" fill="none" xmlns="http://www.w3.org/2000/svg">
<circle cx="25" cy="31.0344" r="25" fill="#FCEDE3"/>
<path d="M59.0929 31.3077C56.4191 31.3077 54.0372 32.5735 52.5105 34.5355L44.6267 29.9867C45.4914 28.1709 45.9763 26.141 45.9763 23.9999C45.9763 21.8587 45.4915 19.8287 44.6267 18.0129L52.5105 13.4643C54.037 15.4263 56.4191 16.6921 59.0929 16.6921C63.6898 16.6921 67.4296 12.9548 67.4296 8.36113C67.4296 3.76744 63.6897 0.0300293 59.0929 0.0300293C54.4961 0.0300293 50.7563 3.76744 50.7563 8.36113C50.7563 9.47454 50.9776 10.5367 51.3759 11.5083L43.4921 16.0572C40.9647 12.4128 36.7511 10.0209 31.9881 10.0209C24.275 10.0208 18 16.2919 18 23.9999C18 31.7079 24.275 37.979 31.9879 37.979C36.7511 37.979 40.9649 35.587 43.4921 31.9426L51.3759 36.4913C50.9776 37.4631 50.7563 38.5252 50.7563 39.6387C50.7563 44.2325 54.4961 47.9697 59.0929 47.9697C63.6898 47.9697 67.4296 44.2323 67.4296 39.6387C67.4296 35.045 63.6897 31.3077 59.0929 31.3077ZM59.0929 2.29092C62.4424 2.29092 65.1673 5.01395 65.1673 8.36113C65.1673 11.7082 62.4424 14.4312 59.0929 14.4312C55.7436 14.4312 53.0187 11.7082 53.0187 8.36113C53.0187 5.0141 55.7434 2.29092 59.0929 2.29092ZM31.9879 35.7181C25.5224 35.7181 20.2623 30.4614 20.2623 23.9999C20.2623 17.5384 25.5224 12.2817 31.9879 12.2817C38.4535 12.2817 43.7138 17.5384 43.7138 23.9999C43.7138 30.4614 38.4535 35.7181 31.9879 35.7181ZM59.0929 45.709C55.7436 45.709 53.0187 42.986 53.0187 39.6388C53.0187 36.2918 55.7436 33.5688 59.0929 33.5688C62.4424 33.5688 65.1673 36.2918 65.1673 39.6388C65.1671 42.9858 62.4422 45.709 59.0929 45.709Z" fill="#2C1338"/>
</svg>
