<svg width="59" height="58" viewBox="0 0 59 58" fill="none" xmlns="http://www.w3.org/2000/svg">
<circle cx="25" cy="32.9656" r="25" fill="#FCEDE3"/>
<path d="M57.7 17.5097H53.6505C53.3573 16.2284 52.6379 15.0846 51.61 14.2654C50.5822 13.4461 49.3067 13 47.9922 13C46.6778 13 45.4023 13.4461 44.3745 14.2654C43.3466 15.0846 42.6272 16.2284 42.334 17.5097H21.3C20.9552 17.5097 20.6246 17.6467 20.3808 17.8905C20.137 18.1343 20 18.4649 20 18.8097C20 19.1545 20.137 19.4852 20.3808 19.729C20.6246 19.9728 20.9552 20.1097 21.3 20.1097H42.334C42.6272 21.391 43.3466 22.5349 44.3745 23.3541C45.4023 24.1733 46.6778 24.6195 47.9922 24.6195C49.3067 24.6195 50.5822 24.1733 51.61 23.3541C52.6379 22.5349 53.3573 21.391 53.6505 20.1097H57.7C58.0448 20.1097 58.3754 19.9728 58.6192 19.729C58.863 19.4852 59 19.1545 59 18.8097C59 18.4649 58.863 18.1343 58.6192 17.8905C58.3754 17.6467 58.0448 17.5097 57.7 17.5097ZM47.989 22.0207C47.3539 22.0207 46.7331 21.8324 46.2051 21.4796C45.677 21.1267 45.2655 20.6253 45.0224 20.0385C44.7794 19.4518 44.7158 18.8062 44.8397 18.1833C44.9636 17.5604 45.2694 16.9883 45.7185 16.5392C46.1675 16.0901 46.7397 15.7843 47.3626 15.6604C47.9854 15.5365 48.6311 15.6001 49.2178 15.8432C49.8045 16.0862 50.306 16.4977 50.6588 17.0258C51.0117 17.5538 51.2 18.1747 51.2 18.8097C51.2 19.6613 50.8617 20.4781 50.2595 21.0802C49.6573 21.6824 48.8406 22.0207 47.989 22.0207Z" fill="black"/>
<path d="M21.3 7.10973H24.823C25.1162 8.39102 25.8356 9.53487 26.8635 10.3541C27.8913 11.1733 29.1668 11.6195 30.4812 11.6195C31.7957 11.6195 33.0712 11.1733 34.099 10.3541C35.1269 9.53487 35.8463 8.39102 36.1395 7.10973H57.7C58.0448 7.10973 58.3754 6.97277 58.6192 6.72897C58.863 6.48517 59 6.15451 59 5.80973C59 5.46495 58.863 5.13429 58.6192 4.89049C58.3754 4.64669 58.0448 4.50973 57.7 4.50973H36.1395C35.8463 3.22844 35.1269 2.08459 34.099 1.26535C33.0712 0.446116 31.7957 0 30.4812 0C29.1668 0 27.8913 0.446116 26.8635 1.26535C25.8356 2.08459 25.1162 3.22844 24.823 4.50973H21.3C20.9552 4.50973 20.6246 4.64669 20.3808 4.89049C20.137 5.13429 20 5.46495 20 5.80973C20 6.15451 20.137 6.48517 20.3808 6.72897C20.6246 6.97277 20.9552 7.10973 21.3 7.10973ZM30.4845 2.59873C31.335 2.60045 32.15 2.93951 32.7508 3.54151C33.3516 4.1435 33.689 4.95925 33.689 5.80973C33.6518 6.6355 33.2976 7.41512 32.7001 7.98632C32.1026 8.55752 31.3079 8.8763 30.4812 8.8763C29.6546 8.8763 28.8599 8.55752 28.2624 7.98632C27.6649 7.41512 27.3107 6.6355 27.2735 5.80973C27.2735 4.95812 27.6118 4.14139 28.214 3.53921C28.8162 2.93703 29.6329 2.59873 30.4845 2.59873Z" fill="black"/>
<path d="M57.7 30.5097H41.9115C41.6183 29.2284 40.8989 28.0846 39.871 27.2654C38.8432 26.4461 37.5677 26 36.2532 26C34.9388 26 33.6633 26.4461 32.6355 27.2654C31.6076 28.0846 30.8882 29.2284 30.595 30.5097H21.3C20.9552 30.5097 20.6246 30.6467 20.3808 30.8905C20.137 31.1343 20 31.465 20 31.8097C20 32.1545 20.137 32.4852 20.3808 32.729C20.6246 32.9728 20.9552 33.1097 21.3 33.1097H30.595C30.8882 34.391 31.6076 35.5349 32.6355 36.3541C33.6633 37.1733 34.9388 37.6195 36.2532 37.6195C37.5677 37.6195 38.8432 37.1733 39.871 36.3541C40.8989 35.5349 41.6183 34.391 41.9115 33.1097H57.7C58.0448 33.1097 58.3754 32.9728 58.6192 32.729C58.863 32.4852 59 32.1545 59 31.8097C59 31.465 58.863 31.1343 58.6192 30.8905C58.3754 30.6467 58.0448 30.5097 57.7 30.5097ZM36.25 35.0207C35.6149 35.0207 34.9941 34.8324 34.4661 34.4796C33.938 34.1268 33.5265 33.6253 33.2834 33.0385C33.0404 32.4518 32.9768 31.8062 33.1007 31.1833C33.2246 30.5604 33.5304 29.9883 33.9795 29.5392C34.4285 29.0901 35.0007 28.7843 35.6236 28.6604C36.2464 28.5365 36.8921 28.6001 37.4788 28.8432C38.0655 29.0862 38.567 29.4977 38.9198 30.0258C39.2727 30.5538 39.461 31.1747 39.461 31.8097C39.461 32.6613 39.1227 33.4781 38.5205 34.0803C37.9183 34.6824 37.1016 35.0207 36.25 35.0207Z" fill="black"/>
</svg>
