<svg width="65" height="61" viewBox="0 0 65 61" fill="none" xmlns="http://www.w3.org/2000/svg">
<circle cx="25" cy="36" r="25" fill="#FCEDE3"/>
<path d="M33.0584 36.2076L39.7495 39.0752C39.8957 39.1378 40.0584 39.0306 40.0584 38.8714V20.9576C40.0584 18.6103 41.9613 16.7075 44.3085 16.7075C46.6558 16.7075 48.5586 18.6103 48.5586 20.9576V31.2075L60.5869 35.217C62.4044 35.8228 63.7558 37.4156 63.8027 39.3309C63.9846 46.7595 61.1754 51.5908 59.5586 53.2075C53.2728 60.99 45.2883 59.5515 39.7118 56.5187C36.372 54.7023 33.9799 51.609 32.0568 48.3295C28.3581 42.022 27.7864 39.6156 28.0584 39.2076C29.2584 36.0076 31.8918 35.8742 33.0584 36.2076Z" stroke="#2C1338" stroke-width="2.3"/>
<path d="M34.5587 27.2075C31.5587 24.5408 26.8587 17.1075 32.0587 8.70747C37.2587 0.307473 46.5586 1.54081 50.5586 3.20747C57.0586 5.91583 64.0586 17.7075 53.0586 27.2075" stroke="#2C1338" stroke-width="2.3" stroke-linecap="round"/>
</svg>
