<svg width="20" height="16" viewBox="0 0 20 16" fill="none" xmlns="http://www.w3.org/2000/svg">
<path d="M3.05944 0C3.0589 0 3.0583 0 3.05776 0C2.8686 0 2.69069 0.0737376 2.55634 0.207745C2.42052 0.343233 2.3457 0.523638 2.3457 0.715693V11.4474C2.3457 11.8409 2.66712 12.1619 3.06227 12.1629C4.72814 12.1668 7.51912 12.514 9.44452 14.5289V3.29792C9.44452 3.16452 9.41044 3.0392 9.34613 2.9355C7.76586 0.390574 4.72908 0.00390574 3.05944 0Z" fill="#92899C"/>
<path d="M17.6544 11.4474V0.715693C17.6544 0.523638 17.5796 0.343233 17.4437 0.207745C17.3094 0.0737376 17.1313 0 16.9424 0C16.9418 0 16.9412 0 16.9406 0C15.2711 0.00397308 12.2343 0.390641 10.6539 2.93557C10.5896 3.03927 10.5556 3.16459 10.5556 3.29799V14.5289C12.481 12.514 15.272 12.1668 16.9379 12.1629C17.333 12.1619 17.6544 11.8409 17.6544 11.4474Z" fill="#92899C"/>
<path opacity="0.4" d="M19.2845 2.47498H18.7655V11.4475C18.7655 12.4523 17.9469 13.2716 16.9405 13.2741C15.5275 13.2774 13.1977 13.5537 11.5477 15.1154C14.4014 14.4167 17.4098 14.8709 19.1243 15.2616C19.3383 15.3104 19.5595 15.26 19.7311 15.1233C19.902 14.9869 20 14.7831 20 14.5643V3.19053C20.0001 2.79599 19.679 2.47498 19.2845 2.47498Z" fill="#92899C"/>
<path opacity="0.4" d="M1.23448 11.4475V2.47498H0.715558C0.321079 2.47498 0 2.79599 0 3.19053V14.5641C0 14.783 0.0980475 14.9867 0.268957 15.1231C0.440338 15.2597 0.661349 15.3103 0.875761 15.2614C2.59024 14.8706 5.59867 14.4165 8.45228 15.1152C6.80231 13.5536 4.47247 13.2774 3.05947 13.274C2.05321 13.2716 1.23448 12.4523 1.23448 11.4475Z" fill="#92899C"/>
</svg>
