<svg width="20" height="19" viewBox="0 0 20 19" fill="none" xmlns="http://www.w3.org/2000/svg">
<path opacity="0.7" d="M13.3663 5.39124C12.7069 2.32874 11.3007 0.391235 10 0.391235C8.69941 0.391235 7.29316 2.32874 6.63379 5.39124H13.3663Z" fill="#92899C"/>
<path opacity="0.7" d="M6.25 9.14124C6.24985 9.97736 6.3056 10.8126 6.41688 11.6412H13.5831C13.6944 10.8126 13.7502 9.97736 13.75 9.14124C13.7502 8.30511 13.6944 7.46992 13.5831 6.64124H6.41688C6.3056 7.46992 6.24985 8.30511 6.25 9.14124Z" fill="#92899C"/>
<path opacity="0.7" d="M6.63379 12.8912C7.29316 15.9537 8.69941 17.8912 10 17.8912C11.3007 17.8912 12.7069 15.9537 13.3663 12.8912H6.63379Z" fill="#92899C"/>
<path opacity="0.4" d="M14.6463 5.39126H18.5838C17.9921 4.04486 17.0932 2.85584 15.9591 1.91959C14.825 0.983332 13.4872 0.325891 12.0531 0C13.2388 1.04313 14.1688 2.97188 14.6463 5.39126Z" fill="#92899C"/>
<path opacity="0.4" d="M19.0331 6.64124H14.8456C14.9487 7.47057 15.0003 8.30551 15 9.14124C15.0001 9.97697 14.9483 10.8119 14.845 11.6412H19.0325C19.4883 10.0057 19.4883 8.27674 19.0325 6.64124H19.0331Z" fill="#92899C"/>
<path opacity="0.4" d="M12.0531 18.2825C13.4874 17.9568 14.8254 17.2994 15.9598 16.3631C17.0941 15.4269 17.9933 14.2378 18.585 12.8912H14.6475C14.1688 15.3106 13.2388 17.2394 12.0531 18.2825Z" fill="#92899C"/>
<path d="M5.35376 12.8912H1.41626C2.008 14.2378 2.90712 15.4269 4.04147 16.3631C5.17582 17.2994 6.51382 17.9568 7.94813 18.2825C6.76126 17.2394 5.83126 15.3106 5.35376 12.8912Z" fill="#92899C"/>
<path d="M7.94691 0C6.5126 0.325715 5.1746 0.983074 4.04025 1.91934C2.9059 2.85561 2.00678 4.04471 1.41504 5.39126H5.35254C5.83129 2.97188 6.76129 1.04313 7.94691 0Z" fill="#92899C"/>
<path d="M4.99995 9.14124C4.99987 8.3055 5.05164 7.47056 5.15495 6.64124H0.967455C0.511662 8.27674 0.511662 10.0057 0.967455 11.6412H5.15495C5.05164 10.8119 4.99987 9.97697 4.99995 9.14124Z" fill="#92899C"/>
</svg>
