<svg width="14" height="20" viewBox="0 0 14 20" fill="none" xmlns="http://www.w3.org/2000/svg">
<path d="M12.9677 8.47466C12.8217 8.21872 12.5497 8.06068 12.2551 8.06068H8.36718V1.81668C8.36718 1.44705 8.11993 1.12308 7.76348 1.02546C7.40697 0.928008 7.02925 1.08081 6.84096 1.39887L1.039 11.2013C0.888938 11.4549 0.886368 11.7694 1.03227 12.0254C1.17824 12.2813 1.45025 12.4394 1.74491 12.4394H5.6328V18.6834C5.6328 19.053 5.87999 19.377 6.2365 19.4746C6.59383 19.5724 6.97111 19.4187 7.15902 19.1013L12.961 9.2988C13.111 9.04521 13.1136 8.73065 12.9677 8.47466Z" fill="url(#paint0_linear_15_707)"/>
<defs>
<linearGradient id="paint0_linear_15_707" x1="13.0754" y1="0.996337" x2="0.9007" y2="12.1445" gradientUnits="userSpaceOnUse">
<stop stop-color="#E24F72"/>
<stop offset="1" stop-color="#FF5E5E"/>
</linearGradient>
</defs>
</svg>
