<svg width="20" height="18" viewBox="0 0 20 18" fill="none" xmlns="http://www.w3.org/2000/svg">
<path d="M2 0C0.895431 0 0 0.895431 0 2V11.0249C0 12.1295 0.895431 13.0249 2 13.0249H18C19.1046 13.0249 20 12.1295 20 11.0249V2C20 0.89543 19.1046 0 18 0H2ZM8.14742 9.65536V3.36958L14.0932 6.51245L8.14742 9.65536Z" fill="#92899C"/>
<path opacity="0.4" d="M13.125 14.2133C12.3611 14.2133 11.7098 14.7083 11.468 15.3974H0V16.5815H11.468C11.7098 17.2706 12.3611 17.7656 13.125 17.7656C13.8889 17.7656 14.5402 17.2706 14.782 16.5815H20V15.3974H14.782C14.5402 14.7083 13.8889 14.2133 13.125 14.2133Z" fill="#92899C"/>
</svg>
