<svg width="1450" height="948" viewBox="0 0 1450 948" fill="none" xmlns="http://www.w3.org/2000/svg">
<g opacity="0.1" clip-path="url(#clip0)">
<path d="M1435.71 459.973C1438.14 463.043 1442.48 463.996 1445.98 461.985C1449.79 459.761 1451.06 454.892 1448.94 451.081C1447.67 448.858 1445.45 447.481 1443.12 447.164V378.777L1383.95 344.583C1384.9 342.36 1384.79 339.819 1383.52 337.49C1382.25 335.267 1380.03 333.891 1377.7 333.573V266.456L1435.82 232.898C1438.25 235.968 1442.59 236.921 1446.08 234.909C1449.89 232.686 1451.16 227.816 1449.05 224.005C1447.78 221.782 1445.55 220.406 1443.23 220.088V151.701L1384.05 117.508C1385.01 115.284 1384.9 112.744 1383.63 110.415C1382.36 108.192 1380.14 106.815 1377.81 106.498V38.4281L1311.01 0L1245.49 37.793L1180.07 0L1114.55 37.793L1049.02 0L983.498 37.793L918.079 0L852.555 37.793L787.031 0L721.507 37.793L656.088 0L590.564 37.793L525.04 0L459.516 37.793L394.098 0L328.574 37.793L263.049 0L197.525 37.793L132.107 0L65.5242 38.4281V114.12L0 151.913V228.769L65.5242 266.562V340.984L0 378.882V455.739L65.5242 493.532V567.953L0 605.746V682.602L65.5242 720.395V794.817L0 832.61V909.466L66.0534 947.576L66.5827 947.894L125.756 913.7C128.19 916.77 132.53 917.723 136.024 915.712C136.976 915.183 137.717 914.441 138.352 913.7L196.996 947.576L197.525 947.894L256.698 913.7C259.133 916.77 263.473 917.723 266.966 915.712C267.919 915.183 268.66 914.441 269.295 913.7L327.938 947.576L328.468 947.894L387.641 913.7C390.075 916.77 394.415 917.723 397.908 915.712C398.861 915.183 399.602 914.441 400.237 913.7L458.881 947.576L459.41 947.894L518.583 913.7C521.018 916.77 525.358 917.723 528.851 915.712C529.804 915.183 530.545 914.441 531.18 913.7L589.823 947.576L590.353 947.894L649.525 913.7C651.96 916.77 656.3 917.723 659.793 915.712C660.746 915.183 661.487 914.441 662.122 913.7L720.766 947.576L721.295 947.894L780.468 913.7C782.903 916.77 787.243 917.723 790.736 915.712C791.689 915.183 792.43 914.441 793.065 913.7L851.708 947.576L852.238 947.894L911.41 913.7C913.845 916.77 918.185 917.723 921.678 915.712C922.631 915.183 923.372 914.441 924.007 913.7L982.651 947.576L983.18 947.894L1042.35 913.7C1044.79 916.77 1049.13 917.723 1052.62 915.712C1053.57 915.183 1054.31 914.441 1054.95 913.7L1113.59 947.576L1114.12 947.894L1173.3 913.7C1175.73 916.77 1180.07 917.723 1183.56 915.712C1184.52 915.183 1185.26 914.441 1185.89 913.7L1244.54 947.576L1245.06 947.894L1304.24 913.7C1306.67 916.77 1311.01 917.723 1314.51 915.712C1315.46 915.183 1316.2 914.441 1316.83 913.7L1375.48 947.576L1376.01 947.894L1435.18 913.7C1437.61 916.77 1441.96 917.723 1445.45 915.712C1449.26 913.489 1450.53 908.619 1448.41 904.808C1447.14 902.585 1444.92 901.209 1442.59 900.891V832.504L1383.42 798.31C1384.37 796.087 1384.26 793.546 1382.99 791.217C1381.72 788.994 1379.5 787.618 1377.17 787.3V720.184L1435.29 686.625C1437.72 689.695 1442.06 690.648 1445.55 688.636C1449.36 686.413 1450.64 681.544 1448.52 677.733C1447.25 675.51 1445.02 674.133 1442.7 673.816V605.428L1383.52 571.235C1384.48 569.012 1384.37 566.471 1383.1 564.142C1381.83 561.919 1379.61 560.543 1377.28 560.225V493.108L1435.71 459.973ZM1441 380.047V447.164C1440.05 447.27 1438.99 447.587 1438.04 448.117C1434.55 450.128 1433.17 454.362 1434.65 458.068L1376.54 491.626L1318.32 458.068C1319.16 455.845 1319.16 453.304 1317.79 451.081C1316.52 448.858 1314.29 447.481 1311.97 447.164V380.047L1370.19 346.488C1372.62 349.558 1376.96 350.511 1380.45 348.5C1381.41 347.971 1382.15 347.335 1382.78 346.488L1441 380.047ZM67.6413 720.395L125.756 686.837C128.19 689.907 132.53 690.86 136.024 688.848C136.976 688.319 137.717 687.578 138.352 686.837L196.467 720.395V787.512C195.514 787.618 194.455 787.936 193.503 788.465C190.009 790.476 188.633 794.711 190.115 798.416L132.001 831.975L67.5354 794.817V720.395H67.6413ZM67.6413 493.532L125.756 459.973C128.19 463.043 132.53 463.996 136.024 461.985C136.976 461.455 137.717 460.714 138.352 459.973L196.467 493.532V560.648C195.514 560.754 194.455 561.072 193.503 561.601C190.009 563.613 188.633 567.847 190.115 571.552L132.001 605.111L67.5354 567.953V493.532H67.6413ZM1309.95 220.3C1309 220.406 1307.94 220.724 1306.99 221.253C1303.5 223.264 1302.12 227.499 1303.6 231.098L1245.49 264.657L1187.37 231.098C1188.22 228.875 1188.22 226.334 1186.84 224.111C1185.57 221.888 1183.35 220.512 1181.02 220.194V153.077L1239.24 119.519C1241.68 122.589 1246.02 123.542 1249.51 121.53C1250.46 121.001 1251.2 120.366 1251.84 119.519L1309.95 153.077V220.3ZM1309.95 447.164C1309 447.27 1307.94 447.587 1306.99 448.117C1303.5 450.128 1302.12 454.362 1303.6 457.962L1245.49 491.52L1187.37 457.962C1188.22 455.739 1188.22 453.198 1186.84 450.975C1185.57 448.752 1183.35 447.376 1181.02 447.058V380.047L1239.24 346.488C1241.68 349.558 1246.02 350.511 1249.51 348.5C1250.46 347.971 1251.2 347.335 1251.84 346.488L1309.95 380.047V447.164ZM1241.57 788.465C1238.08 790.476 1236.7 794.711 1238.18 798.416L1180.07 831.975L1121.96 798.416C1122.91 796.193 1122.8 793.652 1121.53 791.429C1120.26 789.206 1118.04 787.83 1115.71 787.512V720.395L1173.82 686.837C1176.26 689.907 1180.6 690.86 1184.09 688.848C1185.05 688.319 1185.79 687.578 1186.42 686.837L1244.54 720.395V787.512C1243.48 787.618 1242.52 787.936 1241.57 788.465ZM1110.52 788.465C1107.03 790.476 1105.65 794.711 1107.14 798.416L1049.02 831.975L990.907 798.416C991.86 796.193 991.754 793.652 990.484 791.429C989.214 789.206 986.991 787.83 984.662 787.512V720.395L1042.78 686.837C1045.21 689.907 1049.55 690.86 1053.04 688.848C1054 688.319 1054.74 687.578 1055.37 686.837L1113.49 720.395V787.512C1112.43 787.618 1111.48 787.936 1110.52 788.465ZM979.581 788.465C976.088 790.476 974.712 794.711 976.194 798.416L918.079 831.975L859.965 798.416C860.918 796.193 860.812 793.652 859.542 791.429C858.271 789.206 856.048 787.83 853.72 787.512V720.395L911.834 686.837C914.269 689.907 918.609 690.86 922.102 688.848C923.054 688.319 923.795 687.578 924.431 686.837L982.545 720.395V787.512C981.486 787.618 980.534 787.936 979.581 788.465ZM848.533 788.465C845.039 790.476 843.663 794.711 845.145 798.416L787.031 831.975L728.917 798.416C729.869 796.193 729.763 793.652 728.493 791.429C727.223 789.206 725 787.83 722.671 787.512V720.395L780.785 686.837C783.22 689.907 787.56 690.86 791.053 688.848C792.006 688.319 792.747 687.578 793.382 686.837L851.497 720.395V787.512C850.438 787.618 849.485 787.936 848.533 788.465ZM717.59 788.465C714.097 790.476 712.721 794.711 714.203 798.416L656.088 831.975L597.974 798.416C598.927 796.193 598.821 793.652 597.551 791.429C596.28 789.206 594.057 787.83 591.729 787.512V720.395L649.843 686.837C652.278 689.907 656.618 690.86 660.111 688.848C661.064 688.319 661.805 687.578 662.44 686.837L720.554 720.395V787.512C719.496 787.618 718.543 787.936 717.59 788.465ZM586.542 788.465C583.049 790.476 581.673 794.711 583.154 798.416L525.04 831.975L466.926 798.416C467.879 796.193 467.773 793.652 466.502 791.429C465.232 789.206 463.009 787.83 460.68 787.512V720.395L518.795 686.837C521.229 689.907 525.569 690.86 529.063 688.848C530.015 688.319 530.756 687.578 531.391 686.837L589.506 720.395V787.512C588.447 787.618 587.495 787.936 586.542 788.465ZM455.599 788.465C452.106 790.476 450.73 794.711 452.212 798.416L394.098 831.975L335.983 798.416C336.936 796.193 336.83 793.652 335.56 791.429C334.29 789.206 332.067 787.83 329.738 787.512V720.395L387.852 686.837C390.287 689.907 394.627 690.86 398.12 688.848C399.073 688.319 399.814 687.578 400.449 686.837L458.563 720.395V787.512C457.505 787.618 456.446 787.936 455.599 788.465ZM324.551 788.465C321.058 790.476 319.682 794.711 321.164 798.416L263.049 831.975L204.935 798.416C205.888 796.193 205.782 793.652 204.512 791.429C203.241 789.206 201.018 787.83 198.69 787.512V720.395L256.804 686.837C259.239 689.907 263.579 690.86 267.072 688.848C268.025 688.319 268.766 687.578 269.401 686.837L327.515 720.395V787.512C326.456 787.618 325.504 787.936 324.551 788.465ZM332.49 121.53C333.443 121.001 334.184 120.366 334.819 119.519L392.933 153.077V220.194C391.981 220.3 390.922 220.618 389.969 221.147C386.476 223.158 385.1 227.393 386.582 230.992L328.468 264.551L270.353 230.992C271.2 228.769 271.2 226.228 269.824 224.005C268.554 221.782 266.331 220.406 264.002 220.088V152.972L322.222 119.413C324.657 122.695 328.997 123.542 332.49 121.53ZM463.538 121.53C464.491 121.001 465.232 120.366 465.867 119.519L523.982 153.077V220.194C523.029 220.3 521.97 220.618 521.018 221.147C517.524 223.158 516.148 227.393 517.63 230.992L459.516 264.551L401.402 230.992C402.249 228.769 402.249 226.228 400.872 224.005C399.602 221.782 397.379 220.406 395.05 220.088V152.972L453.271 119.413C455.705 122.695 460.045 123.542 463.538 121.53ZM594.481 121.53C595.434 121.001 596.175 120.366 596.81 119.519L654.924 153.077V220.194C653.971 220.3 652.913 220.618 651.96 221.147C648.467 223.158 647.091 227.393 648.573 230.992L590.458 264.551L532.45 231.204C533.297 228.981 533.297 226.44 531.921 224.217C530.65 221.994 528.427 220.618 526.099 220.3V153.183L584.319 119.625C586.648 122.695 591.094 123.542 594.481 121.53ZM725.529 121.53C726.482 121.001 727.223 120.366 727.858 119.519L785.972 153.077V220.194C785.02 220.3 783.961 220.618 783.008 221.147C779.515 223.158 778.139 227.393 779.621 230.992L721.507 264.551L663.392 230.992C664.239 228.769 664.239 226.228 662.863 224.005C661.593 221.782 659.37 220.406 657.041 220.088V152.972L715.261 119.413C717.696 122.695 722.036 123.542 725.529 121.53ZM856.472 121.53C857.424 121.001 858.165 120.366 858.801 119.519L916.915 153.077V220.194C915.962 220.3 914.904 220.618 913.951 221.147C910.458 223.158 909.082 227.393 910.564 230.992L852.449 264.551L794.335 230.992C795.182 228.769 795.182 226.228 793.806 224.005C792.535 221.782 790.312 220.406 787.984 220.088V152.972L846.204 119.413C848.638 122.695 853.084 123.542 856.472 121.53ZM987.52 121.53C988.473 121.001 989.214 120.366 989.849 119.519L1047.96 153.077V220.194C1047.01 220.3 1045.95 220.618 1045 221.147C1041.51 223.158 1040.13 227.393 1041.61 230.992L983.498 264.551L925.383 230.992C926.23 228.769 926.23 226.228 924.854 224.005C923.584 221.782 921.361 220.406 919.032 220.088V152.972L977.252 119.413C979.687 122.695 984.027 123.542 987.52 121.53ZM1118.46 121.53C1119.42 121.001 1120.16 120.366 1120.79 119.519L1178.91 153.077V220.194C1177.95 220.3 1176.89 220.618 1175.94 221.147C1172.45 223.158 1171.07 227.393 1172.55 230.992L1114.44 264.551L1056.43 231.204C1057.28 228.981 1057.28 226.44 1055.9 224.217C1054.63 221.994 1052.41 220.618 1050.08 220.3V153.183L1108.3 119.625C1110.63 122.695 1115.08 123.542 1118.46 121.53ZM198.584 493.532L256.698 459.973C259.133 463.043 263.473 463.996 266.966 461.985C267.919 461.455 268.66 460.714 269.295 459.973L327.409 493.532V560.648C326.456 560.754 325.398 561.072 324.445 561.601C320.952 563.613 319.576 567.847 321.058 571.552L262.943 605.111L204.829 571.552C205.782 569.329 205.676 566.789 204.406 564.565C203.135 562.342 200.913 560.966 198.584 560.648V493.532ZM1179.01 447.164C1178.06 447.27 1177 447.587 1176.05 448.117C1172.55 450.128 1171.18 454.362 1172.66 457.962L1114.55 491.52L1056.43 458.068C1057.28 455.845 1057.28 453.304 1055.9 451.081C1054.63 448.858 1052.41 447.481 1050.08 447.164V380.047L1108.3 346.488C1110.74 349.558 1115.08 350.511 1118.57 348.5C1119.52 347.971 1120.26 347.335 1120.9 346.488L1179.01 380.047V447.164ZM1042.78 233.004C1045.21 236.074 1049.55 237.026 1053.04 235.015C1054 234.486 1054.74 233.745 1055.37 233.004L1113.49 266.562V333.679C1112.53 333.785 1111.48 334.103 1110.52 334.632C1107.03 336.643 1105.65 340.878 1107.14 344.583L1049.02 378.141L990.907 344.583C991.86 342.36 991.754 339.819 990.484 337.596C989.214 335.373 986.991 333.997 984.662 333.679V266.562L1042.78 233.004ZM329.632 493.532L387.746 459.973C390.181 463.043 394.521 463.996 398.014 461.985C398.967 461.455 399.708 460.714 400.343 459.973L458.457 493.532V560.648C457.505 560.754 456.446 561.072 455.493 561.601C452 563.613 450.624 567.847 452.106 571.552L393.992 605.111L335.877 571.552C336.83 569.329 336.724 566.789 335.454 564.565C334.184 562.342 331.961 560.966 329.632 560.648V493.532ZM1047.96 447.164C1047.01 447.27 1045.95 447.587 1045 448.117C1041.51 450.128 1040.13 454.362 1041.61 457.962L983.498 491.52L925.383 457.962C926.23 455.739 926.23 453.198 924.854 450.975C923.584 448.752 921.361 447.376 919.032 447.058V380.047L977.252 346.488C979.687 349.558 984.027 350.511 987.52 348.5C988.473 347.971 989.214 347.335 989.849 346.488L1047.96 380.047V447.164ZM848.533 561.601C845.039 563.613 843.663 567.847 845.145 571.552L787.031 605.111L728.917 571.552C729.869 569.329 729.763 566.789 728.493 564.565C727.223 562.342 725 560.966 722.671 560.648V493.532L780.785 459.973C783.22 463.043 787.56 463.996 791.053 461.985C792.006 461.455 792.747 460.714 793.382 459.973L851.497 493.532V560.648C850.438 560.754 849.485 561.072 848.533 561.601ZM717.59 561.601C714.097 563.613 712.721 567.847 714.203 571.552L656.088 605.111L597.974 571.552C598.927 569.329 598.821 566.789 597.551 564.565C596.28 562.342 594.057 560.966 591.729 560.648V493.532L649.843 459.973C652.278 463.043 656.618 463.996 660.111 461.985C661.064 461.455 661.805 460.714 662.44 459.973L720.554 493.532V560.648C719.496 560.754 718.543 561.072 717.59 561.601ZM586.542 561.601C583.049 563.613 581.673 567.847 583.154 571.552L525.04 605.111L466.926 571.552C467.879 569.329 467.773 566.789 466.502 564.565C465.232 562.342 463.009 560.966 460.68 560.648V493.532L518.795 459.973C521.229 463.043 525.569 463.996 529.063 461.985C530.015 461.455 530.756 460.714 531.391 459.973L589.506 493.532V560.648C588.447 560.754 587.495 561.072 586.542 561.601ZM594.481 348.5C595.434 347.971 596.175 347.335 596.81 346.488L654.924 380.047V447.164C653.971 447.27 652.913 447.587 651.96 448.117C648.467 450.128 647.091 454.362 648.573 457.962L590.458 491.52L532.45 458.068C533.297 455.845 533.297 453.304 531.921 451.081C530.65 448.858 528.427 447.481 526.099 447.164V380.047L584.319 346.488C586.648 349.558 591.094 350.511 594.481 348.5ZM725.529 348.5C726.482 347.971 727.223 347.335 727.858 346.488L785.972 380.047V447.164C785.02 447.27 783.961 447.587 783.008 448.117C779.515 450.128 778.139 454.362 779.621 457.962L721.507 491.52L663.392 457.962C664.239 455.739 664.239 453.198 662.863 450.975C661.593 448.752 659.37 447.376 657.041 447.058V380.047L715.261 346.488C717.696 349.558 722.036 350.511 725.529 348.5ZM856.472 348.5C857.424 347.971 858.165 347.335 858.801 346.488L916.915 380.047V447.164C915.962 447.27 914.904 447.587 913.951 448.117C910.458 450.128 909.082 454.362 910.564 457.962L852.449 491.52L794.335 457.962C795.182 455.739 795.182 453.198 793.806 450.975C792.535 448.752 790.312 447.376 787.984 447.058V380.047L846.204 346.488C848.638 349.558 853.084 350.511 856.472 348.5ZM979.581 561.601C976.088 563.613 974.712 567.847 976.194 571.552L918.079 605.111L859.965 571.552C860.918 569.329 860.812 566.789 859.542 564.565C858.271 562.342 856.048 560.966 853.72 560.648V493.532L911.834 459.973C914.269 463.043 918.609 463.996 922.102 461.985C923.054 461.455 923.795 460.714 924.431 459.973L982.545 493.532V560.648C981.486 560.754 980.534 561.072 979.581 561.601ZM453.271 346.488C455.705 349.558 460.045 350.511 463.538 348.5C464.491 347.971 465.232 347.335 465.867 346.488L523.982 380.047V447.164C523.029 447.27 521.97 447.587 521.018 448.117C517.524 450.128 516.148 454.362 517.63 457.962L459.516 491.52L401.402 457.962C402.249 455.739 402.249 453.198 400.872 450.975C399.602 448.752 397.379 447.376 395.05 447.058V380.047L453.271 346.488ZM911.728 233.004C914.163 236.074 918.503 237.026 921.996 235.015C922.949 234.486 923.69 233.745 924.325 233.004L982.439 266.562V333.679C981.486 333.785 980.428 334.103 979.475 334.632C975.982 336.643 974.606 340.878 976.088 344.583L917.973 378.141L859.859 344.583C860.812 342.36 860.706 339.819 859.436 337.596C858.165 335.373 855.943 333.997 853.614 333.679V266.562L911.728 233.004ZM780.785 233.004C783.22 236.074 787.56 237.026 791.053 235.015C792.006 234.486 792.747 233.745 793.382 233.004L851.497 266.562V333.679C850.544 333.785 849.485 334.103 848.533 334.632C845.039 336.643 843.663 340.878 845.145 344.583L787.031 378.141L728.917 344.583C729.869 342.36 729.763 339.819 728.493 337.596C727.223 335.373 725 333.997 722.671 333.679V266.562L780.785 233.004ZM649.737 233.004C652.172 236.074 656.512 237.026 660.005 235.015C660.958 234.486 661.699 233.745 662.334 233.004L720.448 266.562V333.679C719.496 333.785 718.437 334.103 717.484 334.632C713.991 336.643 712.615 340.878 714.097 344.583L655.983 378.141L597.868 344.583C598.821 342.36 598.715 339.819 597.445 337.596C596.175 335.373 593.952 333.997 591.623 333.679V266.562L649.737 233.004ZM518.795 233.004C521.229 236.074 525.569 237.026 529.063 235.015C530.015 234.486 530.756 233.745 531.391 233.004L589.506 266.562V333.679C588.553 333.785 587.495 334.103 586.542 334.632C583.049 336.643 581.673 340.878 583.154 344.583L525.04 378.141L466.926 344.583C467.879 342.36 467.773 339.819 466.502 337.596C465.232 335.373 463.009 333.997 460.68 333.679V266.562L518.795 233.004ZM387.746 233.004C390.181 236.074 394.521 237.026 398.014 235.015C398.967 234.486 399.708 233.745 400.343 233.004L458.457 266.562V333.679C457.505 333.785 456.446 334.103 455.493 334.632C452 336.643 450.624 340.878 452.106 344.583L393.992 378.141L335.877 344.583C336.83 342.36 336.724 339.819 335.454 337.596C334.184 335.373 331.961 333.997 329.632 333.679V266.562L387.746 233.004ZM401.402 685.037C402.249 682.814 402.249 680.273 400.872 678.05C399.602 675.827 397.379 674.451 395.05 674.133V607.016L453.271 573.458C455.705 576.528 460.045 577.481 463.538 575.469C464.491 574.94 465.232 574.305 465.867 573.458L523.982 607.016V674.133C523.029 674.239 521.97 674.557 521.018 675.086C517.524 677.097 516.148 681.332 517.63 684.931L459.516 718.49L401.402 685.037ZM532.45 685.037C533.297 682.814 533.297 680.273 531.921 678.05C530.65 675.827 528.427 674.451 526.099 674.133V607.016L584.319 573.458C586.754 576.528 591.094 577.481 594.587 575.469C595.539 574.94 596.281 574.305 596.916 573.458L655.03 607.016V674.133C654.077 674.239 653.019 674.557 652.066 675.086C648.573 677.097 647.197 681.332 648.679 684.931L590.564 718.49L532.45 685.037ZM663.392 685.037C664.239 682.814 664.239 680.273 662.863 678.05C661.593 675.827 659.37 674.451 657.041 674.133V607.016L715.261 573.458C717.696 576.528 722.036 577.481 725.529 575.469C726.482 574.94 727.223 574.305 727.858 573.458L785.972 607.016V674.133C785.02 674.239 783.961 674.557 783.008 675.086C779.515 677.097 778.139 681.332 779.621 684.931L721.507 718.49L663.392 685.037ZM794.441 685.037C795.288 682.814 795.288 680.273 793.911 678.05C792.641 675.827 790.418 674.451 788.089 674.133V607.016L846.31 573.458C848.744 576.528 853.084 577.481 856.578 575.469C857.53 574.94 858.271 574.305 858.906 573.458L917.021 607.016V674.133C916.068 674.239 915.009 674.557 914.057 675.086C910.564 677.097 909.187 681.332 910.669 684.931L852.555 718.49L794.441 685.037ZM925.383 685.037C926.23 682.814 926.23 680.273 924.854 678.05C923.584 675.827 921.361 674.451 919.032 674.133V607.016L977.252 573.458C979.687 576.528 984.027 577.481 987.52 575.469C988.473 574.94 989.214 574.305 989.849 573.458L1047.96 607.016V674.133C1047.01 674.239 1045.95 674.557 1045 675.086C1041.51 677.097 1040.13 681.332 1041.61 684.931L983.498 718.49L925.383 685.037ZM1110.52 561.601C1107.03 563.613 1105.65 567.847 1107.14 571.552L1049.02 605.111L990.907 571.552C991.86 569.329 991.754 566.789 990.484 564.565C989.214 562.342 986.991 560.966 984.662 560.648V493.532L1042.78 459.973C1045.21 463.043 1049.55 463.996 1053.04 461.985C1054 461.455 1054.74 460.714 1055.37 459.973L1113.49 493.532V560.648C1112.43 560.754 1111.48 561.072 1110.52 561.601ZM322.328 346.488C324.763 349.558 329.103 350.511 332.596 348.5C333.549 347.971 334.29 347.335 334.925 346.488L393.039 380.047V447.164C392.086 447.27 391.028 447.587 390.075 448.117C386.582 450.128 385.206 454.362 386.688 457.962L328.574 491.52L270.459 457.962C271.306 455.739 271.306 453.198 269.93 450.975C268.66 448.752 266.437 447.376 264.108 447.058V380.047L322.328 346.488ZM264.108 607.016L322.328 573.458C324.763 576.528 329.103 577.481 332.596 575.469C333.549 574.94 334.29 574.305 334.925 573.458L393.039 607.016V674.133C392.086 674.239 391.028 674.557 390.075 675.086C386.582 677.097 385.206 681.332 386.688 684.931L328.574 718.49L270.459 684.931C271.306 682.708 271.306 680.167 269.93 677.944C268.66 675.721 266.437 674.345 264.108 674.027V607.016ZM1176.05 675.086C1172.55 677.097 1171.18 681.332 1172.66 684.931L1114.55 718.49L1056.43 685.037C1057.28 682.814 1057.28 680.273 1055.9 678.05C1054.63 675.827 1052.41 674.451 1050.08 674.133V607.016L1108.3 573.458C1110.74 576.528 1115.08 577.481 1118.57 575.469C1119.52 574.94 1120.26 574.305 1120.9 573.458L1179.01 607.016V674.133C1177.95 674.239 1177 674.557 1176.05 675.086ZM1241.57 334.738C1238.08 336.749 1236.7 340.984 1238.18 344.689L1180.07 378.247L1121.96 344.689C1122.91 342.466 1122.8 339.925 1121.53 337.702C1120.26 335.479 1118.04 334.102 1115.71 333.785V266.668L1173.82 233.11C1176.26 236.18 1180.6 237.132 1184.09 235.121C1185.05 234.592 1185.79 233.851 1186.42 233.11L1244.54 266.668V333.785C1243.48 333.785 1242.52 334.208 1241.57 334.738ZM256.804 233.004C259.239 236.074 263.579 237.026 267.072 235.015C268.025 234.486 268.766 233.745 269.401 233.004L327.515 266.562V333.679C326.562 333.785 325.504 334.103 324.551 334.632C321.058 336.643 319.682 340.878 321.164 344.583L263.049 378.141L204.935 344.583C205.888 342.36 205.782 339.819 204.512 337.596C203.241 335.373 201.018 333.997 198.69 333.679V266.562L256.804 233.004ZM1241.57 561.601C1238.08 563.613 1236.7 567.847 1238.18 571.552L1180.07 605.111L1121.96 571.552C1122.91 569.329 1122.8 566.789 1121.53 564.565C1120.26 562.342 1118.04 560.966 1115.71 560.648V493.532L1173.82 459.973C1176.26 463.043 1180.6 463.996 1184.09 461.985C1185.05 461.455 1185.79 460.714 1186.42 459.973L1244.54 493.532V560.648C1243.48 560.754 1242.52 561.072 1241.57 561.601ZM191.28 119.519C193.714 122.589 198.054 123.542 201.548 121.53C202.5 121.001 203.241 120.366 203.876 119.519L261.991 153.077V220.194C261.038 220.3 259.98 220.618 259.027 221.147C255.534 223.158 254.158 227.393 255.64 230.992L197.525 264.551L139.411 230.992C140.258 228.769 140.258 226.228 138.882 224.005C137.611 221.782 135.388 220.406 133.06 220.088V152.972L191.28 119.519ZM191.28 346.488C193.714 349.558 198.054 350.511 201.548 348.5C202.5 347.971 203.241 347.335 203.876 346.488L261.991 380.047V447.164C261.038 447.27 259.98 447.587 259.027 448.117C255.534 450.128 254.158 454.362 255.64 457.962L197.525 491.52L139.411 457.962C140.258 455.739 140.258 453.198 138.882 450.975C137.611 448.752 135.388 447.376 133.06 447.058V380.047L191.28 346.488ZM133.165 607.016L191.386 573.458C193.82 576.528 198.16 577.481 201.654 575.469C202.606 574.94 203.347 574.305 203.982 573.458L262.097 607.016V674.133C261.144 674.239 260.085 674.557 259.133 675.086C255.64 677.097 254.263 681.332 255.745 684.931L197.631 718.49L139.517 684.931C140.364 682.708 140.364 680.167 138.987 677.944C137.717 675.721 135.494 674.345 133.165 674.027V607.016ZM1307.1 675.086C1303.6 677.097 1302.23 681.332 1303.71 684.931L1245.59 718.49L1187.48 684.931C1188.33 682.708 1188.33 680.167 1186.95 677.944C1185.68 675.721 1183.46 674.345 1181.13 674.027V606.911L1239.35 573.352C1241.78 576.422 1246.12 577.375 1249.62 575.363C1250.57 574.834 1251.31 574.199 1251.95 573.352L1310.06 606.911V674.027C1309 674.239 1307.94 674.557 1307.1 675.086ZM1372.51 334.738C1369.02 336.749 1367.64 340.984 1369.13 344.689L1311.01 378.247L1252.9 344.689C1253.85 342.466 1253.74 339.925 1252.47 337.702C1251.2 335.479 1248.98 334.102 1246.65 333.785V266.668L1304.77 233.11C1307.2 236.18 1311.54 237.132 1315.04 235.121C1315.99 234.592 1316.73 233.851 1317.36 233.11L1375.48 266.668V333.785C1374.42 333.785 1373.47 334.208 1372.51 334.738ZM67.6413 266.562L125.756 233.004C128.19 236.074 132.53 237.026 136.024 235.015C136.976 234.486 137.717 233.745 138.352 233.004L196.467 266.562V333.679C195.514 333.785 194.455 334.103 193.503 334.632C190.009 336.643 188.633 340.878 190.115 344.583L132.001 378.141L67.5354 340.984V266.562H67.6413ZM1372.51 788.465C1369.02 790.476 1367.64 794.711 1369.13 798.416L1311.01 831.975L1252.9 798.416C1253.85 796.193 1253.74 793.652 1252.47 791.429C1251.2 789.206 1248.98 787.83 1246.65 787.512V720.395L1304.77 686.837C1307.2 689.907 1311.54 690.86 1315.04 688.848C1315.99 688.319 1316.73 687.578 1317.36 686.837L1375.48 720.395V787.512C1374.42 787.618 1373.47 787.936 1372.51 788.465ZM1372.51 561.601C1369.02 563.613 1367.64 567.847 1369.13 571.552L1311.01 605.111L1252.9 571.552C1253.85 569.329 1253.74 566.789 1252.47 564.565C1251.2 562.342 1248.98 560.966 1246.65 560.648V493.532L1304.77 459.973C1307.2 463.043 1311.54 463.996 1315.04 461.985C1315.99 461.455 1316.73 460.714 1317.36 459.973L1375.48 493.532V560.648C1374.42 560.754 1373.47 561.072 1372.51 561.601ZM1441 153.183V220.3C1440.05 220.406 1438.99 220.724 1438.04 221.253C1434.55 223.264 1433.17 227.499 1434.65 231.204L1376.54 264.762L1318.32 231.204C1319.16 228.981 1319.16 226.44 1317.79 224.217C1316.52 221.994 1314.29 220.618 1311.97 220.3V153.183L1370.19 119.625C1372.62 122.695 1376.96 123.648 1380.45 121.636C1381.41 121.107 1382.15 120.472 1382.78 119.625L1441 153.183ZM1375.48 39.6985V106.815C1374.53 106.921 1373.47 107.239 1372.51 107.768C1369.02 109.78 1367.64 114.014 1369.13 117.719L1311.01 151.278L1252.9 117.719C1253.85 115.496 1253.74 112.955 1252.47 110.732C1251.2 108.509 1248.98 107.133 1246.65 106.815V39.6985L1311.12 2.5407L1375.48 39.6985ZM1244.43 39.6985V106.815C1243.48 106.921 1242.42 107.239 1241.47 107.768C1237.97 109.78 1236.6 114.014 1238.08 117.719L1179.96 151.278L1121.85 117.719C1122.8 115.496 1122.7 112.955 1121.43 110.732C1120.16 108.509 1117.93 107.133 1115.6 106.815V39.6985L1180.07 2.5407L1244.43 39.6985ZM1113.49 39.6985V106.815C1112.53 106.921 1111.48 107.239 1110.52 107.768C1107.03 109.78 1105.65 114.014 1107.14 117.719L1049.02 151.278L990.907 117.719C991.86 115.496 991.754 112.955 990.484 110.732C989.214 108.509 986.991 107.133 984.662 106.815V39.6985L1049.02 2.43484L1113.49 39.6985ZM982.439 39.6985V106.815C981.486 106.921 980.428 107.239 979.475 107.768C975.982 109.78 974.606 114.014 976.088 117.719L917.973 151.278L859.859 117.719C860.812 115.496 860.706 112.955 859.436 110.732C858.165 108.509 855.943 107.133 853.614 106.815V39.6985L918.079 2.5407L982.439 39.6985ZM851.497 39.6985V106.815C850.544 106.921 849.485 107.239 848.533 107.768C845.039 109.78 843.663 114.014 845.145 117.719L787.031 151.278L728.917 117.719C729.869 115.496 729.763 112.955 728.493 110.732C727.223 108.509 725 107.133 722.671 106.815V39.6985L787.137 2.5407L851.497 39.6985ZM720.448 39.6985V106.815C719.496 106.921 718.437 107.239 717.484 107.768C713.991 109.78 712.615 114.014 714.097 117.719L655.983 151.278L597.868 117.719C598.821 115.496 598.715 112.955 597.445 110.732C596.175 108.509 593.952 107.133 591.623 106.815V39.6985L656.088 2.5407L720.448 39.6985ZM589.506 39.6985V106.815C588.553 106.921 587.495 107.239 586.542 107.768C583.049 109.78 581.673 114.014 583.154 117.719L525.04 151.278L466.926 117.719C467.879 115.496 467.773 112.955 466.502 110.732C465.232 108.509 463.009 107.133 460.68 106.815V39.6985L525.04 2.43484L589.506 39.6985ZM458.457 39.6985V106.815C457.505 106.921 456.446 107.239 455.493 107.768C452 109.78 450.624 114.014 452.106 117.719L393.992 151.278L335.877 117.719C336.83 115.496 336.724 112.955 335.454 110.732C334.184 108.509 331.961 107.133 329.632 106.815V39.6985L394.098 2.5407L458.457 39.6985ZM327.515 39.6985V106.815C326.562 106.921 325.504 107.239 324.551 107.768C321.058 109.78 319.682 114.014 321.164 117.719L263.049 151.278L204.935 117.719C205.888 115.496 205.782 112.955 204.512 110.732C203.241 108.509 201.018 107.133 198.69 106.815V39.6985L263.155 2.5407L327.515 39.6985ZM67.6413 39.6985L132.107 2.5407L196.572 39.6985V106.815C195.62 106.921 194.561 107.239 193.609 107.768C190.115 109.78 188.739 114.014 190.221 117.719L132.107 151.278L67.6413 114.12V39.6985ZM2.1171 153.183L66.5827 116.025L131.048 153.183V220.3C130.096 220.406 129.037 220.724 128.084 221.253C124.591 223.264 123.215 227.499 124.697 231.098L66.4769 264.657L2.1171 227.605V153.183ZM2.1171 380.047L66.5827 342.889L131.048 380.047V447.164C130.096 447.27 129.037 447.587 128.084 448.117C124.591 450.128 123.215 454.362 124.697 457.962L66.4769 491.52L2.1171 454.468V380.047ZM2.1171 607.016L66.5827 569.859L131.048 607.016V674.133C130.096 674.239 129.037 674.557 128.084 675.086C124.591 677.097 123.215 681.332 124.697 684.931L66.4769 718.49L2.1171 681.438V607.016ZM2.1171 908.301V833.88L66.5827 796.722L131.048 833.88V900.997C130.096 901.103 129.037 901.42 128.084 901.95C124.591 903.961 123.215 908.196 124.697 911.901L66.5827 945.459L2.1171 908.301ZM139.411 911.901C140.364 909.678 140.258 907.137 138.987 904.914C137.717 902.691 135.494 901.315 133.165 900.997V833.88L191.386 800.322C193.82 803.392 198.16 804.344 201.654 802.333C202.606 801.804 203.347 801.168 203.982 800.322L262.097 833.88V900.997C261.144 901.103 260.085 901.42 259.133 901.95C255.64 903.961 254.263 908.196 255.745 911.901L197.631 945.459L139.411 911.901ZM270.459 911.901C271.412 909.678 271.306 907.137 270.036 904.914C268.766 902.691 266.543 901.315 264.214 900.997V833.88L322.434 800.322C324.869 803.392 329.209 804.344 332.702 802.333C333.655 801.804 334.396 801.168 335.031 800.322L393.145 833.88V900.997C392.192 901.103 391.134 901.42 390.181 901.95C386.688 903.961 385.312 908.196 386.794 911.901L328.679 945.459L270.459 911.901ZM401.402 911.901C402.354 909.678 402.248 907.137 400.978 904.914C399.708 902.691 397.485 901.315 395.156 900.997V833.88L453.376 800.322C455.811 803.392 460.151 804.344 463.644 802.333C464.597 801.804 465.338 801.168 465.973 800.322L524.087 833.88V900.997C523.135 901.103 522.076 901.42 521.124 901.95C517.63 903.961 516.254 908.196 517.736 911.901L459.622 945.459L401.402 911.901ZM532.45 911.901C533.403 909.678 533.297 907.137 532.027 904.914C530.756 902.691 528.533 901.315 526.205 900.997V833.88L584.425 800.322C586.859 803.392 591.199 804.344 594.693 802.333C595.645 801.804 596.386 801.168 597.021 800.322L655.136 833.88V900.997C654.183 901.103 653.125 901.42 652.172 901.95C648.679 903.961 647.303 908.196 648.785 911.901L590.67 945.459L532.45 911.901ZM663.392 911.901C664.345 909.678 664.239 907.137 662.969 904.914C661.699 902.691 659.476 901.315 657.147 900.997V833.88L715.367 800.322C717.802 803.392 722.142 804.344 725.635 802.333C726.588 801.804 727.329 801.168 727.964 800.322L786.078 833.88V900.997C785.126 901.103 784.067 901.42 783.114 901.95C779.621 903.961 778.245 908.196 779.727 911.901L721.613 945.459L663.392 911.901ZM794.441 911.901C795.393 909.678 795.288 907.137 794.017 904.914C792.747 902.691 790.524 901.315 788.195 900.997V833.88L846.416 800.322C848.85 803.392 853.19 804.344 856.683 802.333C857.636 801.804 858.377 801.168 859.012 800.322L917.127 833.88V900.997C916.174 901.103 915.115 901.42 914.163 901.95C910.669 903.961 909.293 908.196 910.775 911.901L852.661 945.459L794.441 911.901ZM925.383 911.901C926.336 909.678 926.23 907.137 924.96 904.914C923.69 902.691 921.467 901.315 919.138 900.997V833.88L977.358 800.322C979.793 803.392 984.133 804.344 987.626 802.333C988.579 801.804 989.32 801.168 989.955 800.322L1048.07 833.88V900.997C1047.12 901.103 1046.06 901.42 1045.11 901.95C1041.61 903.961 1040.24 908.196 1041.72 911.901L983.603 945.459L925.383 911.901ZM1056.43 911.901C1057.38 909.678 1057.28 907.137 1056.01 904.914C1054.74 902.691 1052.51 901.315 1050.19 900.997V833.88L1108.41 800.322C1110.84 803.392 1115.18 804.344 1118.67 802.333C1119.63 801.804 1120.37 801.168 1121 800.322L1179.12 833.88V900.997C1178.16 901.103 1177.11 901.42 1176.15 901.95C1172.66 903.961 1171.28 908.196 1172.77 911.901L1114.65 945.459L1056.43 911.901ZM1187.37 911.901C1188.33 909.678 1188.22 907.137 1186.95 904.914C1185.68 902.691 1183.46 901.315 1181.13 900.997V833.88L1239.35 800.322C1241.78 803.392 1246.12 804.344 1249.62 802.333C1250.57 801.804 1251.31 801.168 1251.95 800.322L1310.06 833.88V900.997C1309.11 901.103 1308.05 901.42 1307.1 901.95C1303.6 903.961 1302.23 908.196 1303.71 911.901L1245.59 945.459L1187.37 911.901ZM1441 833.88V900.997C1440.05 901.103 1438.99 901.42 1438.04 901.95C1434.55 903.961 1433.17 908.196 1434.65 911.901L1376.54 945.459L1318.42 911.901C1319.38 909.678 1319.27 907.137 1318 904.914C1316.73 902.691 1314.51 901.315 1312.18 900.997V833.88L1370.4 800.322C1372.83 803.392 1377.17 804.344 1380.67 802.333C1381.62 801.804 1382.36 801.168 1382.99 800.322L1441 833.88ZM1441 607.016V674.133C1440.05 674.239 1438.99 674.557 1438.04 675.086C1434.55 677.097 1433.17 681.332 1434.65 685.037L1376.54 718.596L1318.32 685.037C1319.16 682.814 1319.16 680.273 1317.79 678.05C1316.52 675.827 1314.29 674.451 1311.97 674.133V607.016L1370.19 573.458C1372.62 576.528 1376.96 577.481 1380.45 575.469C1381.41 574.94 1382.15 574.305 1382.78 573.458L1441 607.016Z" fill="white"/>
</g>
<defs>
<clipPath id="clip0">
<rect width="1450" height="948" fill="white"/>
</clipPath>
</defs>
</svg>
