<svg width="21" height="21" viewBox="0 0 21 21" fill="none" xmlns="http://www.w3.org/2000/svg">
<path d="M8.69565 3.60864C3.90087 3.60864 0 7.50951 0 12.3043C0 17.0991 3.90087 20.9999 8.69565 20.9999C13.4904 20.9999 17.3913 17.0991 17.3913 12.3043C17.3913 7.50951 13.4904 3.60864 8.69565 3.60864ZM12.1739 13.1739H10.2017L11.1887 14.8826C11.4287 15.2991 11.2861 15.8304 10.8704 16.0704C10.7339 16.1495 10.5843 16.1869 10.4365 16.1869C10.1357 16.1869 9.84348 16.0313 9.68261 15.7521L8.69565 14.0434L7.70957 15.7521C7.54783 16.0304 7.25652 16.1869 6.95565 16.1869C6.80869 16.1869 6.65913 16.1495 6.52174 16.0704C6.10609 15.8304 5.96348 15.2982 6.20348 14.8826L7.18956 13.1739H5.21739C4.73739 13.1739 4.34783 12.7852 4.34783 12.3043C4.34783 11.8234 4.73739 11.4347 5.21739 11.4347H7.18956L6.20348 9.7269C5.96348 9.31125 6.10522 8.77908 6.52174 8.53908C6.93652 8.29821 7.4687 8.44082 7.70957 8.85734L8.69565 10.5652L9.68174 8.85734C9.92174 8.44169 10.453 8.29908 10.8696 8.53908C11.2861 8.77908 11.4287 9.31125 11.1878 9.7269L10.2017 11.4347H12.1739C12.6548 11.4347 13.0435 11.8234 13.0435 12.3043C13.0435 12.7852 12.6548 13.1739 12.1739 13.1739Z" fill="#D3D0D7"/>
<circle cx="16.087" cy="4.91304" r="3.91304" fill="#92899C" stroke="white" stroke-width="1.5"/>
</svg>
