<svg width="22" height="22" viewBox="0 0 22 22" fill="none" xmlns="http://www.w3.org/2000/svg">
<rect y="5.33337" width="16.6667" height="16.6667" rx="2" fill="#D3D0D7"/>
<path d="M6.87183 11.0216L6.87179 11.0217C6.70513 11.1883 6.59597 11.3974 6.54987 11.6187L6.54984 11.6187L6.54866 11.6246L5.9398 14.6698C5.93975 14.67 5.93971 14.6702 5.93967 14.6704C5.93965 14.6705 5.93963 14.6706 5.93961 14.6707C5.86133 15.0613 5.98639 15.4588 6.26051 15.7352L6.26275 15.7375C6.48882 15.9635 6.79139 16.0829 7.09803 16.0829C7.17053 16.0829 7.24967 16.0763 7.33267 16.0591L10.3748 15.4507L10.3776 15.4501C10.5997 15.4048 10.8113 15.2962 10.98 15.1261L17.7943 8.31176L18.3247 7.78143L17.7943 7.2511L14.7491 4.20588L14.2188 3.67558L13.6885 4.20584L6.87183 11.0216Z" fill="#92899C" stroke="white" stroke-width="1.5"/>
<path d="M14.6016 3.29185L14.0713 3.82218L14.6016 4.35251L17.6468 7.39774L18.1771 7.92807L18.7075 7.39774L19.8991 6.20605C19.8992 6.20597 19.8993 6.20589 19.8994 6.20581C20.4473 5.65898 20.75 4.92691 20.75 4.15298C20.75 3.37879 20.4471 2.64699 19.8997 2.09961C18.7671 0.967039 16.926 0.966557 15.7938 2.09961C15.7938 2.09964 15.7938 2.09966 15.7937 2.09969C15.7937 2.09976 15.7936 2.09982 15.7936 2.09988L14.6016 3.29185Z" fill="#92899C" stroke="white" stroke-width="1.5"/>
</svg>
