<svg width="20" height="21" viewBox="0 0 20 21" fill="none" xmlns="http://www.w3.org/2000/svg">
<path opacity="0.4" d="M20 8.42499C20 9.1833 19.7833 9.92498 19.3833 10.5667C18.1188 12.5839 15.7835 12.3556 15.7 12.375V8.75C15.7 7.37498 14.575 6.25 13.2 6.25C12.0084 6.25 11 7.09167 10.7584 8.21665H9.23335C8.9917 7.09167 7.99169 6.25 6.79169 6.25C5.41667 6.25 4.29169 7.37498 4.29169 8.75V12.375H3.82502C2.44862 12.375 0 10.6005 0 7.7833C0 5.42501 1.76666 3.4583 4.0417 3.14163C4.86669 1.26663 6.75837 0 8.83336 0C10.0834 0 11.2667 0.44164 12.2084 1.24166C12.4334 1.21663 12.6667 1.2 12.9083 1.2C15.1917 1.2 17.2167 2.71667 17.8834 4.86664C19.175 5.56666 20 6.91666 20 8.42499Z" fill="#92899C"/>
<path d="M13.1994 7.91663C12.7392 7.91663 12.3661 8.28935 12.3661 8.74996V9.88033H7.62651V8.74996C7.62651 8.28935 7.25338 7.91663 6.79317 7.91663C6.33297 7.91663 5.95984 8.28935 5.95984 8.74996V20.052C5.95984 20.5127 6.33297 20.8854 6.79317 20.8854C7.25338 20.8854 7.62651 20.5127 7.62651 20.052V18.9217H12.3661V20.052C12.3661 20.5127 12.7392 20.8854 13.1994 20.8854C13.6596 20.8854 14.0328 20.5127 14.0328 20.052V8.74996C14.0328 8.28935 13.6596 7.91663 13.1994 7.91663ZM12.3661 11.547V13.5677H7.62651V11.547H12.3661ZM7.62651 17.255V15.2343H12.3661V17.255H7.62651Z" fill="#92899C"/>
</svg>
