<svg width="20" height="14" viewBox="0 0 20 14" fill="none" xmlns="http://www.w3.org/2000/svg">
<path d="M12.7895 0.193379L12.8343 0.177074H12.8058L12.7895 0.193379Z" fill="#92899C"/>
<path d="M7.27556 0.175715C7.27556 0.175715 4.97152 0.0887559 2.48576 1.90132C2.48576 1.90132 0 6.17321 0 11.4397C0 11.4397 1.37781 13.8039 5.15595 13.8936C5.15595 13.8936 5.70789 13.1694 6.26526 12.5321C4.14294 11.8962 3.31706 10.6245 3.31706 10.6245L4.02631 10.9859C6.10117 11.8297 8.29672 12.8936 12.2078 12.2577L12.265 12.245C13.0719 12.0659 13.8799 11.8865 14.6867 11.5307C15.2238 11.259 15.8855 10.9872 16.6111 10.5293C16.6111 10.5293 15.7838 11.8011 13.5734 12.437C14.029 13.0702 14.6691 13.7958 14.6691 13.7958C18.4486 13.7142 19.9173 11.35 20 11.4506C20 6.19223 17.4993 1.91219 17.4993 1.91219C15.2644 0.274903 13.176 0.201531 12.7814 0.200172L12.5292 0.448823C15.3838 1.26407 16.7657 2.53721 16.7657 2.53721C12.6241 0.493661 8.15026 0.376809 4.05343 1.991C3.40928 2.26682 3.04041 2.44754 3.04041 2.44754C3.04041 2.44754 4.41958 1.08607 7.46135 0.359145L7.27556 0.175715Z" fill="#92899C"/>
<path d="M13.0706 9.80104C14.0903 9.80104 14.9208 9.02292 14.9208 8.06323C14.9208 7.11003 14.0946 6.33191 13.0706 6.33191V6.3358C12.0551 6.3358 11.2232 7.11133 11.2204 8.07102C11.2204 9.02292 12.0508 9.80104 13.0706 9.80104Z" fill="white"/>
<path d="M6.7107 9.80104C7.66673 9.80104 8.44527 9.02292 8.44527 8.06323C8.44527 7.11003 7.67211 6.33191 6.71608 6.33191L6.7107 6.3358C5.75467 6.3358 4.97614 7.11133 4.97614 8.07102C4.97614 9.02292 5.75467 9.80104 6.7107 9.80104Z" fill="white"/>
</svg>
