<?xml version="1.0" encoding="UTF-8"?>
<svg width="348px" height="512px" viewBox="0 0 348 512" version="1.1" xmlns="http://www.w3.org/2000/svg" xmlns:xlink="http://www.w3.org/1999/xlink">
    <title>hand</title>
    <g id="Page-1" stroke="none" stroke-width="1" fill="none" fill-rule="evenodd">
        <g id="hand" transform="translate(174.000000, 256.000000) scale(-1, 1) translate(-174.000000, -256.000000) " fill="#000000" fill-rule="nonzero">
            <polygon id="Path" points="288.784 0.083 267.651 21.216 290.409 43.974 203.097 43.974 203.097 73.86 290.409 73.86 267.651 96.618 288.784 117.75 347.618 58.917"></polygon>
            <path d="M239.642,232.76 C234.627,232.76 229.826,233.69 225.397,235.38 C218.88,222.044 205.178,212.835 189.363,212.835 C183.692,212.835 178.296,214.026 173.402,216.159 C166.356,204.526 153.552,196.731 138.954,196.731 C135.385,196.731 131.925,197.203 128.628,198.077 L128.628,158.325 C140.225,152.062 150.199,143.17 157.813,132.201 C167.623,118.069 172.808,101.478 172.808,84.222 C172.808,37.781 135.027,0 88.587,0 C42.147,0 4.367,37.781 4.367,84.221 C4.367,101.579 9.608,118.25 19.525,132.433 C27.043,143.186 36.826,151.918 48.178,158.122 L48.178,259.17 C21.588,260.548 0.382,282.513 0.382,309.316 L0.382,372.596 L66.162,454.855 L66.162,512 L243.925,512 L244.201,446.899 L279.927,383.339 L279.726,272.844 C279.725,250.741 261.744,232.76 239.642,232.76 Z M34.253,84.221 C34.253,54.261 58.627,29.887 88.587,29.887 C118.547,29.887 142.921,54.261 142.921,84.221 C142.921,98.251 137.661,111.251 128.628,121.047 L128.628,108.442 C128.673,97.711 124.473,87.584 116.803,79.925 C109.183,72.318 99.096,68.104 88.399,68.058 C88.341,68.058 88.287,68.058 88.229,68.058 C66.223,68.058 48.271,85.988 48.178,108.166 L48.178,120.449 C39.436,110.653 34.253,97.799 34.253,84.221 Z M214.347,439.017 L214.165,482.114 L96.048,482.114 L96.048,444.374 L30.268,362.115 L30.268,309.316 C30.268,298.107 39.493,288.988 50.831,288.988 L78.064,288.988 L78.064,108.23 C78.088,102.535 82.654,97.882 88.273,97.9443677 C93.971,97.969 98.765,102.718 98.741,108.379 L98.741,272.843 L128.627,272.843 L128.627,236.813 C128.627,231.191 133.259,226.616 138.953,226.616 C144.647,226.616 149.279,231.19 149.279,236.813 L149.279,272.843 L179.165,272.843 L179.165,252.917 C179.165,247.295 183.739,242.72 189.362,242.72 C194.985,242.72 199.558,247.294 199.558,252.917 L199.558,272.843 L229.444,272.843 C229.444,267.22 234.018,262.646 239.641,262.646 C245.264,262.646 249.838,267.22 249.838,272.87 L250.024,375.539 L214.347,439.017 Z" id="Shape"></path>
        </g>
    </g>
</svg>