<svg width="17" height="17" viewBox="0 0 17 17" fill="none" xmlns="http://www.w3.org/2000/svg">
<path d="M15.8185 8.40919C15.8185 12.5012 12.5013 15.8184 8.40924 15.8184C4.31722 15.8184 1 12.5012 1 8.40919C1 4.31721 4.31722 1 8.40924 1C12.5013 1 15.8185 4.31721 15.8185 8.40919Z" stroke="white" stroke-width="2"/>
<path d="M6.34009 8.07986C7.30159 8.07986 8.08105 7.3004 8.08105 6.3389C8.08105 5.37739 7.30159 4.59793 6.34009 4.59793C5.37858 4.59793 4.59912 5.37739 4.59912 6.3389C4.59912 7.3004 5.37858 8.07986 6.34009 8.07986Z" fill="white"/>
<path d="M10.8079 8.07986C11.7694 8.07986 12.5488 7.3004 12.5488 6.3389C12.5488 5.37739 11.7694 4.59793 10.8079 4.59793C9.84635 4.59793 9.06689 5.37739 9.06689 6.3389C9.06689 7.3004 9.84635 8.07986 10.8079 8.07986Z" fill="white"/>
<path d="M6.34009 12.5486C7.30159 12.5486 8.08105 11.7692 8.08105 10.8076C8.08105 9.84614 7.30159 9.06668 6.34009 9.06668C5.37858 9.06668 4.59912 9.84614 4.59912 10.8076C4.59912 11.7692 5.37858 12.5486 6.34009 12.5486Z" fill="white"/>
<path d="M10.8079 12.5486C11.7694 12.5486 12.5488 11.7692 12.5488 10.8076C12.5488 9.84614 11.7694 9.06668 10.8079 9.06668C9.84635 9.06668 9.06689 9.84614 9.06689 10.8076C9.06689 11.7692 9.84635 12.5486 10.8079 12.5486Z" fill="white"/>
</svg>
